<svg width="96" height="194" viewBox="0 0 96 194" fill="none" xmlns="http://www.w3.org/2000/svg">
<g clip-path="url(#clip0_30_41)">
<path d="M151.201 0.94928L90.015 36.8134L209.54 106.903L240.397 88.2723L274.051 108.759" stroke="#0DB09E" stroke-width="1.89697" stroke-linecap="round"/>
<path d="M69.445 91.6884L56.0479 99.7658C54.7235 100.564 54.7619 102.497 56.1164 103.242L152.965 156.552L136.335 167.425C134.906 168.36 134.963 170.474 136.442 171.329L173.485 192.76" stroke="#0DB09E" stroke-width="2.09818" stroke-linecap="round"/>
<path d="M1.14282 52.1974L69.4453 91.6885C69.5334 91.7393 69.6423 91.7393 69.7305 91.6885L126.875 58.8C126.963 58.7492 127.072 58.7492 127.161 58.8L186.944 93.323C187.135 93.433 187.135 93.7068 186.947 93.8178L142.166 119.855C141.977 119.965 141.977 120.24 142.169 120.349L178.175 141.214C178.367 141.325 178.364 141.601 178.172 141.71L152.967 156.057C152.773 156.167 152.773 156.443 152.964 156.553L175.877 169.713C175.965 169.764 176.074 169.764 176.163 169.713L206.897 152.003C206.985 151.952 207.094 151.952 207.183 152.003L256.942 180.813" stroke="#FCC45D" stroke-width="2.28695" stroke-linecap="round"/>
<path opacity="0.3" d="M77.7878 37.8699L61.999 28.7481L77.7878 19.6324L93.5838 28.7481L77.7878 37.8699Z" fill="#0DB09E"/>
<path opacity="0.5" d="M77.7878 27.3625L61.999 18.2458L77.7878 9.12915L93.5838 18.2458L77.7878 27.3625Z" fill="#0DB09E"/>
<path opacity="0.7" d="M77.7878 18.9456L61.999 9.82896L77.7878 0.713318L93.5838 9.82999L77.7878 18.9467V18.9456Z" fill="#0DB09E"/>
<path d="M77.7876 19.3961C77.7088 19.3961 77.6351 19.3775 77.5625 19.3349L61.7738 10.2183C61.6338 10.1394 61.5487 9.98697 61.5487 9.82932C61.5487 9.67167 61.6338 9.51921 61.7738 9.44038L77.5625 0.324743C77.7025 0.245919 77.8726 0.245919 78.0116 0.324743L93.7993 9.44038C93.9394 9.51921 94.0254 9.67167 94.0254 9.82932C94.0254 9.98697 93.9394 10.1394 93.7993 10.2183L78.0116 19.3349C77.9452 19.3775 77.8654 19.3961 77.7866 19.3961H77.7876ZM62.8918 9.82932L77.7876 18.4295L92.6823 9.82932L77.7876 1.23019L62.8918 9.82932Z" fill="#0DB09E"/>
<path d="M29.9661 74.3772L36.7315 72.8422L35.1965 66.0768" stroke="#FCC45D" stroke-width="2.28695" stroke-linecap="round"/>
<path d="M95.646 82.9421L96.9383 76.1269L90.1221 74.8346" stroke="#FCC45D" stroke-width="2.28695" stroke-linecap="round"/>
<path d="M25.112 53.4657C25.3796 53.6202 25.5279 53.4999 25.558 53.2085L25.6472 51.9566C25.9148 48.2695 29.9244 50.3791 29.9244 45.3375C29.9244 41.222 27.0131 37.6894 24.0728 35.9916C20.8057 34.105 18.6079 34.9969 17.7761 37.3627C17.6869 37.6541 17.7461 37.9974 18.2812 38.6488L20.0932 40.998C20.3898 41.3755 20.6283 41.5124 20.8057 41.2728C21.2216 40.3808 21.9943 39.3872 23.5977 40.3124C24.8454 41.0322 25.7955 42.4386 25.7955 43.9477C25.7955 47.0685 21.9341 44.6332 22.0534 49.8813L22.0835 51.2016C22.0835 51.5107 22.2909 51.8363 22.5585 51.9909L25.113 53.4657H25.112ZM23.8653 60.5993C25.2022 61.371 26.3006 60.7362 26.3006 59.1929C26.3006 57.6496 25.2012 55.678 23.8653 54.9053C22.4994 54.116 21.4 54.785 21.4 56.3625C21.4 57.94 22.4994 59.809 23.8653 60.5983V60.5993Z" fill="#FCC45D"/>
<path d="M67.6825 67.8813L62.1316 64.6764V58.2668C62.1306 57.0865 61.3029 55.6531 60.2813 55.0619L49.1795 48.6522C48.1579 48.0642 47.3303 48.5413 47.3292 49.7205V62.5388C47.3313 63.7191 48.159 65.1525 49.1795 65.7437L54.7304 68.9485V75.3582C54.7315 76.5385 55.5591 77.9718 56.5807 78.563L67.6825 84.9727C68.7042 85.5608 69.5318 85.0837 69.5328 83.9044V71.0861C69.5308 69.9058 68.7031 68.4725 67.6825 67.8813ZM49.1806 64.8901C48.5676 64.5364 48.0708 63.6756 48.0708 62.9672V50.1489C48.0708 49.4405 48.5676 49.1542 49.1806 49.5079L60.2824 55.9176C60.8953 56.2713 61.3921 57.1321 61.3921 57.8405V64.2502L56.5818 61.4726C55.5602 60.8846 54.7325 61.3617 54.7315 62.5409V68.096L49.1806 64.8911V64.8901ZM68.7923 83.4782C68.7923 84.1865 68.2955 84.4728 67.6825 84.1191L56.5818 77.7094C55.9688 77.3558 55.472 76.4949 55.472 75.7865V62.9682C55.472 62.2598 55.9688 61.9736 56.5818 62.3273L67.6836 68.7369C68.2965 69.0906 68.7934 69.9515 68.7934 70.6598V83.4782H68.7923Z" fill="#0DB09E" stroke="#0DB09E" stroke-width="0.0674157" stroke-miterlimit="10"/>
<path d="M67.6822 67.6677L62.317 64.5697V58.3747C62.3159 57.0762 61.4053 55.4986 60.281 54.8483L49.1802 48.4387C48.057 47.7915 47.1464 48.3173 47.1443 49.6138V62.4331C47.1453 63.7317 48.056 65.3092 49.1802 65.9595L54.5455 69.0575V75.2525C54.5465 76.551 55.4572 78.1275 56.5814 78.7778L67.6833 85.1875C68.8075 85.8347 69.7182 85.3088 69.7192 84.0124V71.193C69.7182 69.8945 68.8075 68.3169 67.6833 67.6666L67.6822 67.6677ZM56.5804 61.258C55.4561 60.6108 54.5465 61.1367 54.5445 62.4331V67.7735L49.1792 64.6755C48.6689 64.3809 48.2551 63.6632 48.2551 63.0741V50.2558C48.2551 49.6667 48.6689 49.4271 49.1792 49.7227L60.281 56.1323C60.7913 56.4269 61.2051 57.1436 61.2051 57.7337V63.9287L56.5804 61.258ZM68.6074 83.3704C68.6074 83.9595 68.1935 84.1991 67.6833 83.9035L56.5825 77.4938C56.0722 77.1992 55.6584 76.4815 55.6584 75.8924V63.0741C55.6584 62.4839 56.0722 62.2454 56.5825 62.541L67.6843 68.9507C68.1946 69.2452 68.6084 69.9629 68.6084 70.552V83.3704H68.6074Z" fill="#0DB09E" stroke="#0DB09E" stroke-width="0.428349"/>
<path d="M62.3056 71.3849V68.1365L66.4511 70.5303C66.5331 70.577 66.5984 70.6921 66.5984 70.7865V80.7899C66.5984 80.8843 66.5331 80.9227 66.4511 80.875L57.7887 75.8727C57.7068 75.826 57.6415 75.7109 57.6415 75.6176V70.8311L60.4543 72.4553C61.4759 73.0444 62.3046 72.5662 62.3056 71.387V71.3849ZM66.4511 69.3324L57.7887 64.3312C57.1343 63.9526 56.6033 64.2596 56.6033 65.0157V75.0191C56.6033 75.7752 57.1343 76.6942 57.7887 77.0717L66.4511 82.0729C67.1056 82.4515 67.6366 82.1445 67.6366 81.3884V71.3849C67.6366 70.6288 67.1056 69.7099 66.4511 69.3324ZM57.7887 65.5291L61.2684 67.5381V70.7865C61.2684 71.3051 60.9044 71.5156 60.4543 71.2563L57.6415 69.6321V65.6141C57.6415 65.5197 57.7079 65.4814 57.7887 65.5291Z" fill="#0DB09E" stroke="#0DB09E" stroke-width="0.094382" stroke-miterlimit="10"/>
<path d="M67.4978 64.518L67.6606 64.4246H67.6627V64.4236C67.8805 64.3064 68.2279 64.5097 68.4416 64.881C68.6563 65.2523 68.6584 65.6537 68.4478 65.7844H68.4457L67.336 66.4264L67.4978 64.518ZM67.4978 64.518V62.2207C67.4978 61.394 66.918 60.389 66.2024 59.9762L63.6126 58.4806C63.3056 58.3033 63.0566 58.4464 63.0566 58.8011C63.0566 59.1558 63.3056 59.5863 63.6126 59.7636L66.2024 61.2592C66.304 61.3173 66.387 61.4614 66.387 61.5786V63.8749L66.2252 63.5949L66.2231 63.5908C66.0053 63.2215 65.6589 63.0255 65.4442 63.1489C65.2295 63.2723 65.2274 63.6716 65.4369 64.045L65.439 64.0492L66.5488 65.9721C66.6535 66.1525 66.7946 66.3029 66.9419 66.388C67.0891 66.473 67.2312 66.4876 67.3349 66.4264L67.4967 64.518H67.4978Z" fill="#0DB09E"/>
<path d="M67.4978 64.518L67.6606 64.4246H67.6627V64.4236C67.8805 64.3064 68.2279 64.5097 68.4416 64.881C68.6563 65.2523 68.6584 65.6537 68.4478 65.7844H68.4457L67.336 66.4264L67.4978 64.518ZM67.4978 64.518V62.2207C67.4978 61.394 66.918 60.389 66.2024 59.9762L63.6126 58.4806C63.3056 58.3033 63.0566 58.4464 63.0566 58.8011C63.0566 59.1558 63.3056 59.5863 63.6126 59.7636L66.2024 61.2592C66.304 61.3173 66.387 61.4614 66.387 61.5786V63.8749L66.2252 63.5949L66.2231 63.5908C66.0053 63.2215 65.6589 63.0255 65.4442 63.1489C65.2295 63.2723 65.2274 63.6716 65.4369 64.045L65.439 64.0492L66.5488 65.9721C66.6535 66.1525 66.7946 66.3029 66.9419 66.388C67.0891 66.473 67.2312 66.4876 67.3349 66.4264L67.4967 64.518H67.4978Z" stroke="#0DB09E" stroke-width="0.094382" stroke-miterlimit="10"/>
<path d="M52.5335 71.4989L53.6433 73.4218C53.6951 73.5121 53.7366 73.6065 53.7646 73.7008C53.8206 73.8896 53.8206 74.0659 53.7646 74.1893C53.7366 74.2516 53.6962 74.2993 53.6433 74.3294L52.5325 71.4989H52.5335ZM52.5335 71.4989L52.5314 71.4948C52.3136 71.1256 51.9672 70.9295 51.7525 71.053C51.5378 71.1764 51.5347 71.5747 51.7453 71.948L51.7474 71.9522L51.9091 72.2322L49.9199 71.0841C49.8182 71.026 49.7353 70.8818 49.7353 70.7646V67.7735C49.7353 67.4187 49.4863 66.9883 49.1793 66.811C48.8723 66.6336 48.6234 66.7767 48.6234 67.1314V70.1226C48.6234 70.9492 49.2032 71.9543 49.9188 72.3671L51.9081 73.5152L51.7474 73.6085C51.6042 73.6863 51.5461 73.8917 51.597 74.1437C51.6478 74.3978 51.7992 74.6602 51.9932 74.8314C52.1871 75.0014 52.3935 75.0543 52.5325 74.9693L53.6412 74.3294L52.5304 71.4989H52.5335Z" fill="#0DB09E"/>
<path d="M52.5335 71.4989L53.6433 73.4218C53.6951 73.5121 53.7366 73.6065 53.7646 73.7008C53.8206 73.8896 53.8206 74.0659 53.7646 74.1893C53.7366 74.2516 53.6962 74.2993 53.6433 74.3294L52.5325 71.4989H52.5335ZM52.5335 71.4989L52.5314 71.4948C52.3136 71.1256 51.9672 70.9295 51.7525 71.053C51.5378 71.1764 51.5347 71.5747 51.7453 71.948L51.7474 71.9522L51.9091 72.2322L49.9199 71.0841C49.8182 71.026 49.7353 70.8818 49.7353 70.7646V67.7735C49.7353 67.4187 49.4863 66.9883 49.1793 66.811C48.8723 66.6336 48.6234 66.7767 48.6234 67.1314V70.1226C48.6234 70.9492 49.2032 71.9543 49.9188 72.3671L51.9081 73.5152L51.7474 73.6085C51.6042 73.6863 51.5461 73.8917 51.597 74.1437C51.6478 74.3978 51.7992 74.6602 51.9932 74.8314M52.5335 71.4989H52.5304L53.6412 74.3294L52.5325 74.9693C52.3935 75.0543 52.1871 75.0014 51.9932 74.8314M51.9932 74.8314L52.0398 74.6509" stroke="#0DB09E" stroke-width="0.094382" stroke-miterlimit="10"/>
</g>
<defs>
<clipPath id="clip0_30_41">
<rect width="275" height="193.809" fill="white"/>
</clipPath>
</defs>
</svg>
