<svg width="400" height="469" viewBox="0 0 400 469" fill="none" xmlns="http://www.w3.org/2000/svg">
<g clip-path="url(#clip0_30_369)">
<path d="M610.919 128.243L517.847 180.704L378.337 102.781L308.164 142.547" stroke="#0DB09E" stroke-width="5.07742" stroke-linecap="round"/>
<path d="M365.895 2.29657L217.83 89.0846L507.069 258.695L581.74 213.611L663.179 263.188" stroke="#0DB09E" stroke-width="4" stroke-linecap="round"/>
<path d="M168.052 221.878L135.632 241.425C132.427 243.357 132.52 248.033 135.798 249.838L370.162 378.841L329.919 405.155C326.461 407.416 326.599 412.531 330.178 414.602L419.82 466.463" stroke="#0DB09E" stroke-width="4" stroke-linecap="round"/>
<path d="M2.76584 126.313L168.052 221.878C168.265 222.001 168.529 222.001 168.742 221.878L307.027 142.291C307.24 142.168 307.504 142.168 307.72 142.291L452.387 225.833C452.852 226.1 452.852 226.762 452.395 227.031L344.03 290.038C343.573 290.304 343.573 290.969 344.037 291.235L431.169 341.726C431.633 341.994 431.626 342.662 431.162 342.925L370.167 377.644C369.698 377.91 369.698 378.578 370.16 378.844L425.607 410.691C425.821 410.814 426.084 410.814 426.3 410.691L500.672 367.833C500.885 367.71 501.149 367.71 501.364 367.833L621.777 437.552" stroke="#FCC45D" stroke-width="4" stroke-linecap="round"/>
<path fill-rule="evenodd" clip-rule="evenodd" d="M397.274 132.153L378.294 121.196C377.629 120.811 377.089 121.123 377.089 121.891V149.424C377.089 150.242 377.664 151.238 378.377 151.647L405.448 167.281C406.161 167.69 406.736 167.359 406.736 166.541V146.969L397.274 132.151V132.153ZM397.813 141.287V135.602L403.561 144.607L397.813 141.287ZM405.019 165.06L378.799 149.921V123.467L396.097 133.454V140.792C396.097 141.611 396.671 142.607 397.384 143.016L405.019 147.426V165.06Z" fill="#0DB09E" stroke="#0DB09E" stroke-width="0.228396" stroke-miterlimit="10"/>
<path opacity="0.3" d="M188.238 91.6421L150.031 69.568L188.238 47.5089L226.463 69.568L188.238 91.6421Z" fill="#0DB09E"/>
<path opacity="0.5" d="M188.238 66.2147L150.031 44.1532L188.238 22.0916L226.463 44.1532L188.238 66.2147Z" fill="#0DB09E"/>
<path opacity="0.7" d="M188.238 45.8475L150.031 23.7859L188.238 1.72687L226.463 23.7884L188.238 45.85V45.8475Z" fill="#0DB09E"/>
<path d="M188.238 46.9366C188.048 46.9366 187.869 46.8915 187.694 46.7886L149.486 24.727C149.148 24.5363 148.942 24.1673 148.942 23.7858C148.942 23.4043 149.148 23.0354 149.486 22.8446L187.694 0.785578C188.033 0.59483 188.444 0.59483 188.781 0.785578L226.985 22.8446C227.324 23.0354 227.533 23.4043 227.533 23.7858C227.533 24.1673 227.324 24.5363 226.985 24.727L188.781 46.7886C188.62 46.8915 188.427 46.9366 188.236 46.9366H188.238ZM152.192 23.7858L188.238 44.5975L224.282 23.7858L188.238 2.97667L152.192 23.7858Z" fill="#0DB09E"/>
<path opacity="0.7" d="M299.608 258.168L279.564 246.592L299.608 235.004L319.652 246.592L299.608 258.168Z" fill="#0DB09E"/>
<path opacity="0.5" d="M299.608 246.592L279.564 235.004L299.608 223.429L319.652 235.004L299.608 246.592Z" fill="#0DB09E"/>
<path opacity="0.3" d="M299.608 235.004L279.564 223.429L299.608 211.856L319.652 223.429L299.608 235.004Z" fill="#0DB09E"/>
<path d="M299.608 259.24C299.415 259.24 299.241 259.194 299.061 259.091L279.017 247.519C278.678 247.328 278.47 246.959 278.47 246.577C278.47 246.196 278.678 245.827 279.017 245.636L299.061 234.061C299.4 233.87 299.809 233.87 300.148 234.061L320.199 245.636C320.538 245.827 320.738 246.196 320.738 246.577C320.738 246.959 320.538 247.328 320.199 247.519L300.148 259.091C299.989 259.194 299.794 259.24 299.608 259.24ZM281.723 246.577L299.608 256.9L317.486 246.577L299.608 236.254L281.723 246.577Z" fill="#0DB09E"/>
<path opacity="0.7" d="M255.668 355.56L235.612 343.985L255.656 332.412L275.712 343.985L255.668 355.56Z" fill="#0DB09E" stroke="#0DB09E" stroke-width="0.228396" stroke-miterlimit="10"/>
<path d="M255.656 349.858C255.462 349.858 255.289 349.812 255.108 349.71L235.065 338.134C234.726 337.943 234.518 337.574 234.518 337.193C234.518 336.811 234.726 336.442 235.065 336.252L255.108 324.679C255.447 324.488 255.861 324.488 256.2 324.679L276.244 336.252C276.583 336.442 276.791 336.811 276.791 337.193C276.791 337.574 276.583 337.943 276.244 338.134L256.2 349.71C256.034 349.812 255.846 349.858 255.653 349.858H255.656ZM237.77 337.195L255.656 347.521L273.541 337.195L255.656 326.872L237.77 337.195Z" fill="#0DB09E" stroke="#0DB09E" stroke-width="0.228396" stroke-miterlimit="10"/>
<path d="M312.383 158.986L328.7 155.026L324.737 138.709" stroke="#FCC45D" stroke-width="5.53421" stroke-linecap="round"/>
<path d="M402.564 337.861L419.004 334.455L415.593 318.015" stroke="#FCC45D" stroke-width="5.53421" stroke-linecap="round"/>
<path d="M72.5145 179.986L88.8862 176.272L85.1717 159.9" stroke="#FCC45D" stroke-width="5.53421" stroke-linecap="round"/>
<path d="M231.456 200.712L234.583 184.22L218.088 181.093" stroke="#FCC45D" stroke-width="5.53421" stroke-linecap="round"/>
<path d="M60.7684 129.383C61.416 129.757 61.7749 129.465 61.8477 128.76L62.0635 125.731C62.711 116.808 72.4141 121.913 72.4141 109.713C72.4141 99.7539 65.369 91.2053 58.2536 87.0967C50.3475 82.5313 45.0292 84.6898 43.0163 90.4147C42.8004 91.12 42.9435 91.9508 44.2386 93.527L48.6233 99.2118C49.3411 100.125 49.9184 100.457 50.3475 99.8769C51.354 97.7184 53.2238 95.314 57.104 97.5527C60.1234 99.2946 62.4224 102.698 62.4224 106.35C62.4224 113.902 53.0782 108.009 53.3669 120.709L53.4397 123.904C53.4397 124.652 53.9416 125.44 54.5892 125.814L60.7709 129.383H60.7684ZM57.7516 146.645C60.9868 148.513 63.6447 146.977 63.6447 143.242C63.6447 139.507 60.9843 134.736 57.7516 132.866C54.4461 130.956 51.7857 132.575 51.7857 136.393C51.7857 140.21 54.4461 144.733 57.7516 146.643V146.645Z" fill="#FCC45D"/>
<path d="M367.512 144.246L411.57 169.686V183.861C411.57 186.725 409.564 187.887 407.082 186.454L372.01 166.202C369.527 164.769 367.514 161.285 367.514 158.421V144.246H367.512Z" stroke="#0DB09E" stroke-width="3.45857" stroke-linejoin="round"/>
<path d="M382.486 161.521C382.486 160.321 383.329 159.835 384.368 160.434L394.721 166.413C395.758 167.013 396.603 168.473 396.603 169.673C396.603 170.873 395.76 171.36 394.721 170.76L384.368 164.781C383.331 164.182 382.486 162.721 382.486 161.521Z" stroke="#0DB09E" stroke-width="2.07564"/>
<path d="M356.197 265.15C356.197 262.387 356.91 260.095 358.238 258.567C359.566 257.036 361.461 256.338 363.667 256.557C365.88 256.775 368.307 257.904 370.659 259.797C373.003 261.689 375.162 264.267 376.848 267.196C378.543 270.127 379.697 273.28 380.162 276.261C380.631 279.241 380.39 281.911 379.476 283.934C378.555 285.959 377.007 287.244 375.016 287.631C373.031 288.018 370.694 287.485 368.3 286.105C365.09 284.248 362.013 281 359.744 277.072C357.475 273.144 356.202 268.857 356.195 265.15H356.197Z" fill="white" stroke="white" stroke-width="0.228396" stroke-miterlimit="10"/>
<path d="M355.603 264.804C355.603 268.694 356.945 273.194 359.325 277.315C361.704 281.437 364.934 284.847 368.303 286.795C370.812 288.246 373.269 288.803 375.358 288.396C377.438 287.99 379.072 286.639 380.034 284.516C380.995 282.393 381.243 279.589 380.754 276.462C380.262 273.335 379.052 270.024 377.283 266.95C375.506 263.875 373.244 261.172 370.782 259.184C368.32 257.196 365.76 256.014 363.443 255.783C361.127 255.555 359.142 256.288 357.744 257.894C356.346 259.5 355.608 261.905 355.608 264.804H355.603ZM379.885 285.894L379.677 286.225L379.988 286.767L388.876 302.168C389.428 303.137 389.774 304.183 389.852 305.132L389.9 305.787L390.447 306.101L398.137 310.543L398.739 310.89V273.184L398.137 272.838L389.262 267.715C389.242 267.7 389.215 267.678 389.187 267.652C389.159 267.625 389.139 267.595 389.117 267.562C389.097 267.53 389.082 267.494 389.074 267.459C389.059 267.424 389.054 267.389 389.054 267.359V255.492L388.459 255.146L365.878 242.107L365.276 241.761V255.648L365.981 255.906C366.749 256.187 367.524 256.551 368.297 256.993C370.559 258.296 372.78 260.251 374.743 262.67C376.713 265.09 378.359 267.891 379.529 270.8C380.699 273.709 381.341 276.628 381.404 279.273C381.467 281.918 380.94 284.197 379.883 285.892L379.885 285.894ZM368.295 257.422L367.439 257.754C366.829 257.407 367.078 256.77 366.475 256.514V243.834L387.862 256.182V266.666C387.862 266.879 387.904 267.11 387.972 267.349C388.042 267.587 388.145 267.826 388.276 268.052C388.406 268.277 388.559 268.486 388.733 268.666C388.898 268.847 389.087 268.993 389.265 269.101L397.545 273.877V308.816L390.961 305.014C390.776 303.922 390.346 302.768 389.729 301.689V301.683L381.145 286.813C382.162 285.003 382.666 284.453 382.604 281.74C382.533 278.854 381.828 275.669 380.556 272.491C379.283 269.316 377.484 266.259 375.34 263.617C373.189 260.976 370.762 258.84 368.292 257.42L368.295 257.422Z" fill="#0EAF9C"/>
<path d="M389.074 267.459C389.082 267.494 389.097 267.53 389.117 267.562C389.139 267.595 389.159 267.625 389.187 267.652C389.215 267.678 389.242 267.7 389.262 267.715L398.137 272.838L398.739 273.184V310.89L398.137 310.543L390.447 306.101L389.9 305.787L389.852 305.132C389.774 304.183 389.428 303.137 388.876 302.168L379.988 286.767L379.677 286.225L379.885 285.894L379.883 285.892C380.94 284.197 381.467 281.918 381.404 279.273C381.341 276.628 380.699 273.709 379.529 270.8C378.359 267.891 376.713 265.09 374.743 262.67C372.78 260.251 370.559 258.296 368.297 256.993C367.524 256.551 366.749 256.187 365.981 255.906L365.276 255.648V241.761L365.878 242.107L388.459 255.146L389.054 255.492V267.359C389.054 267.389 389.059 267.424 389.074 267.459ZM389.074 267.459L388.522 267.404M355.603 264.804C355.603 268.694 356.945 273.194 359.325 277.315C361.704 281.437 364.934 284.847 368.303 286.795C370.812 288.246 373.269 288.803 375.358 288.396C377.438 287.99 379.072 286.639 380.034 284.516C380.995 282.393 381.243 279.589 380.754 276.462C380.262 273.335 379.052 270.024 377.283 266.95C375.506 263.875 373.244 261.172 370.782 259.184C368.32 257.196 365.76 256.014 363.443 255.783C361.127 255.555 359.142 256.288 357.744 257.894C356.346 259.5 355.608 261.905 355.608 264.804H355.603ZM368.295 257.422L367.439 257.754C366.829 257.407 367.078 256.77 366.475 256.514V243.834L387.862 256.182V266.666C387.862 266.879 387.904 267.11 387.972 267.349C388.042 267.587 388.145 267.826 388.276 268.052C388.406 268.277 388.559 268.486 388.733 268.666C388.898 268.847 389.087 268.993 389.265 269.101L397.545 273.877V308.816L390.961 305.014C390.776 303.922 390.346 302.768 389.729 301.689V301.683L381.145 286.813C382.162 285.003 382.666 284.453 382.604 281.74C382.533 278.854 381.828 275.669 380.556 272.491C379.283 269.316 377.484 266.259 375.34 263.617C373.189 260.976 370.762 258.84 368.292 257.42L368.295 257.422Z" stroke="#0EAF9C" stroke-width="1.38293"/>
<path d="M369.705 253.151L385.44 262.239V262.718L369.705 253.63V253.151Z" fill="#0DB09E" stroke="#0DB09E" stroke-width="1.38293"/>
<path d="M386.09 270.878L395.253 276.196V276.675L386.09 271.357V270.878Z" fill="#0EAF9C" stroke="#0EAF9C" stroke-width="1.38293"/>
<path d="M386.09 274.848L395.253 280.167V280.646L386.09 275.328V274.848Z" fill="#0EAF9C" stroke="#0EAF9C" stroke-width="1.38293"/>
<path d="M385.899 278.505L395.253 283.954V284.433L385.899 278.985V278.505Z" fill="#0DB09E" stroke="#0DB09E" stroke-width="1.38293"/>
<path d="M385.844 282.493L386.248 282.747V283.226L385.844 282.973V282.493Z" fill="#0DB09E" stroke="#0DB09E" stroke-width="1.38293"/>
<path d="M388.76 284.13L395.253 287.691V288.171L388.76 284.609V284.13Z" fill="#0DB09E" stroke="#0DB09E" stroke-width="1.38293"/>
<path d="M163.785 164.267L150.352 156.512V141.001C150.35 138.144 148.347 134.676 145.875 133.245L119.009 117.734C116.537 116.311 114.534 117.466 114.532 120.32V151.339C114.537 154.195 116.54 157.664 119.009 159.094L132.442 166.85V182.36C132.445 185.217 134.448 188.685 136.92 190.116L163.785 205.627C166.257 207.05 168.26 205.895 168.263 203.042V172.022C168.258 169.166 166.255 165.698 163.785 164.267ZM119.012 157.029C117.529 156.173 116.326 154.09 116.326 152.375V121.356C116.326 119.642 117.529 118.949 119.012 119.805L145.877 135.316C147.361 136.172 148.563 138.255 148.563 139.969V155.48L136.922 148.759C134.45 147.336 132.447 148.49 132.445 151.344V164.787L119.012 157.031V157.029ZM166.471 202.01C166.471 203.724 165.268 204.417 163.785 203.561L136.922 188.05C135.439 187.194 134.237 185.111 134.237 183.397V152.378C134.237 150.664 135.439 149.971 136.922 150.827L163.788 166.338C165.271 167.193 166.473 169.277 166.473 170.991V202.01H166.471Z" fill="#0DB09E" stroke="#0DB09E" stroke-width="0.16314" stroke-miterlimit="10"/>
<path d="M163.785 163.75L150.802 156.253V141.262C150.799 138.119 148.595 134.302 145.875 132.728L119.012 117.217C116.294 115.651 114.09 116.924 114.085 120.061V151.083C114.088 154.225 116.291 158.043 119.012 159.616L131.995 167.113V182.104C131.998 185.247 134.202 189.062 136.922 190.635L163.788 206.146C166.508 207.712 168.712 206.44 168.714 203.303V172.281C168.712 169.139 166.508 165.321 163.788 163.747L163.785 163.75ZM136.92 148.239C134.199 146.673 131.998 147.945 131.993 151.083V164.006L119.009 156.509C117.775 155.796 116.773 154.059 116.773 152.634V121.615C116.773 120.189 117.775 119.609 119.009 120.325L145.875 135.835C147.11 136.548 148.111 138.283 148.111 139.711V154.702L136.92 148.239ZM166.024 201.749C166.024 203.175 165.022 203.754 163.788 203.039L136.925 187.528C135.69 186.815 134.688 185.079 134.688 183.653V152.634C134.688 151.206 135.69 150.628 136.925 151.344L163.79 166.855C165.025 167.567 166.026 169.304 166.026 170.73V201.749H166.024Z" fill="#0DB09E" stroke="#0DB09E" stroke-width="1.03657"/>
<path d="M150.774 172.745V164.884L160.806 170.677C161.004 170.79 161.162 171.069 161.162 171.297V195.505C161.162 195.733 161.004 195.826 160.806 195.71L139.844 183.605C139.645 183.492 139.487 183.214 139.487 182.988V171.405L146.294 175.335C148.766 176.761 150.772 175.604 150.774 172.75V172.745ZM160.806 167.778L139.844 155.676C138.26 154.76 136.975 155.503 136.975 157.332V181.54C136.975 183.369 138.26 185.593 139.844 186.507L160.806 198.609C162.39 199.525 163.675 198.782 163.675 196.953V172.745C163.675 170.916 162.39 168.692 160.806 167.778ZM139.844 158.575L148.264 163.436V171.297C148.264 172.552 147.383 173.061 146.294 172.434L139.487 168.504V158.78C139.487 158.552 139.648 158.459 139.844 158.575Z" fill="#0DB09E" stroke="#0DB09E" stroke-width="0.228396" stroke-miterlimit="10"/>
<path d="M163.338 156.127L163.732 155.902H163.737V155.899C164.264 155.615 165.105 156.107 165.622 157.006C166.142 157.904 166.147 158.876 165.637 159.192H165.632L162.947 160.746L163.338 156.127ZM163.338 156.127V150.568C163.338 148.568 161.935 146.136 160.204 145.137L153.936 141.518C153.194 141.088 152.591 141.435 152.591 142.293C152.591 143.152 153.194 144.193 153.936 144.622L160.204 148.242C160.45 148.382 160.65 148.731 160.65 149.015V154.571L160.259 153.894L160.254 153.884C159.727 152.99 158.888 152.516 158.369 152.814C157.849 153.113 157.844 154.079 158.351 154.983L158.356 154.993L161.042 159.646C161.295 160.083 161.637 160.447 161.993 160.653C162.349 160.859 162.693 160.894 162.944 160.746L163.336 156.127H163.338Z" fill="#0DB09E"/>
<path d="M163.338 156.127L163.732 155.902H163.737V155.899C164.264 155.615 165.105 156.107 165.622 157.006C166.142 157.904 166.147 158.876 165.637 159.192H165.632L162.947 160.746L163.338 156.127ZM163.338 156.127V150.568C163.338 148.568 161.935 146.136 160.204 145.137L153.936 141.518C153.194 141.088 152.591 141.435 152.591 142.293C152.591 143.152 153.194 144.193 153.936 144.622L160.204 148.242C160.45 148.382 160.65 148.731 160.65 149.015V154.571L160.259 153.894L160.254 153.884C159.727 152.99 158.888 152.516 158.369 152.814C157.849 153.113 157.844 154.079 158.351 154.983L158.356 154.993L161.042 159.646C161.295 160.083 161.637 160.447 161.993 160.653C162.349 160.859 162.693 160.894 162.944 160.746L163.336 156.127H163.338Z" stroke="#0DB09E" stroke-width="0.228396" stroke-miterlimit="10"/>
<path d="M127.126 173.021L129.812 177.675C129.937 177.893 130.038 178.121 130.106 178.35C130.241 178.806 130.241 179.233 130.106 179.532C130.038 179.682 129.94 179.798 129.812 179.871L127.124 173.021H127.126ZM127.126 173.021L127.121 173.011C126.594 172.118 125.756 171.643 125.236 171.942C124.717 172.241 124.709 173.205 125.219 174.108L125.224 174.118L125.615 174.796L120.802 172.017C120.556 171.877 120.355 171.528 120.355 171.244V164.006C120.355 163.148 119.752 162.106 119.009 161.677C118.267 161.248 117.664 161.594 117.664 162.452V169.691C117.664 171.691 119.067 174.123 120.799 175.122L125.613 177.9L125.224 178.126C124.878 178.315 124.737 178.812 124.86 179.421C124.983 180.036 125.349 180.671 125.819 181.085C126.288 181.497 126.788 181.625 127.124 181.419L129.807 179.871L127.119 173.021H127.126Z" fill="#0DB09E"/>
<path d="M127.126 173.021L129.812 177.675C129.937 177.893 130.038 178.121 130.106 178.35C130.241 178.806 130.241 179.233 130.106 179.532C130.038 179.682 129.94 179.798 129.812 179.871L127.124 173.021H127.126ZM127.126 173.021L127.121 173.011C126.594 172.118 125.756 171.643 125.236 171.942C124.717 172.241 124.709 173.205 125.219 174.108L125.224 174.118L125.615 174.796L120.802 172.017C120.556 171.877 120.355 171.528 120.355 171.244V164.006C120.355 163.148 119.752 162.106 119.009 161.677C118.267 161.248 117.664 161.594 117.664 162.452V169.691C117.664 171.691 119.067 174.123 120.799 175.122L125.613 177.9L125.224 178.126C124.878 178.315 124.737 178.812 124.86 179.421C124.983 180.036 125.349 180.671 125.819 181.085M127.126 173.021H127.119L129.807 179.871L127.124 181.419C126.788 181.625 126.288 181.497 125.819 181.085M125.819 181.085L125.932 180.649" stroke="#0DB09E" stroke-width="0.228396" stroke-miterlimit="10"/>
<path d="M258.02 80.1745L289.599 98.4085V135.178L258.02 116.944V80.1745Z" fill="white"/>
<path fill-rule="evenodd" clip-rule="evenodd" d="M266.051 76.6783C266.051 74.8486 266.548 73.6514 268.119 74.5574C269.691 75.466 270.188 77.2355 270.188 79.0651V82.3806L277.436 86.5671V83.2516C277.436 81.4219 277.933 80.2247 279.504 81.1307C281.08 82.0393 281.572 83.8087 281.572 85.6384V88.9539L288.045 92.6911C291.192 94.5057 293.737 98.9456 293.737 102.607V110.142L296.586 111.786C298.157 112.695 299.435 114.007 299.435 115.839C299.435 117.672 298.155 117.511 296.586 116.602L293.737 114.958V123.402L296.586 125.046C298.157 125.954 299.435 127.267 299.435 129.096C299.435 130.926 298.155 130.768 296.586 129.862L293.737 128.218V135.753C293.737 139.414 291.192 140.91 288.045 139.096L281.572 135.358V138.674C281.572 140.504 281.08 141.701 279.504 140.795C277.933 139.886 277.436 138.117 277.436 136.287V132.972L270.188 128.785V132.101C270.188 133.93 269.691 135.128 268.119 134.222C266.548 133.313 266.051 131.544 266.051 129.714V126.398L259.578 122.661C256.431 120.847 253.886 116.407 253.886 112.745V105.21L251.037 103.566C249.466 102.658 248.194 101.345 248.194 99.5154C248.194 97.6857 249.466 97.8438 251.037 98.7499L253.886 100.394V91.9532L251.037 90.3092C249.466 89.4007 248.194 88.088 248.194 86.2584C248.194 84.4287 249.466 84.5868 251.037 85.4929L253.886 87.1368V79.6022C253.886 75.9404 256.431 74.4445 259.578 76.2616L266.051 79.9988V76.6833V76.6783ZM258.02 80.1745L289.599 98.4085V135.178L258.02 116.944V80.1745Z" fill="#0DB09E"/>
<path d="M282.353 102.663L265.268 92.8015V112.687L282.353 122.548V102.663Z" fill="#0DB09E"/>
<path d="M391.608 302.001L380.277 285.654C379.284 284.222 377.319 283.866 375.887 284.858C374.456 285.85 374.1 287.816 375.093 289.248L386.425 305.595C387.418 307.027 389.383 307.383 390.814 306.391C392.245 305.399 392.601 303.433 391.608 302.001Z" fill="white" stroke="#0DB09E" stroke-width="2.29651" stroke-miterlimit="10"/>
<path d="M378.751 287.839C383.974 284.218 383.528 274.531 377.754 266.202C371.981 257.874 363.066 254.057 357.843 257.678C352.62 261.299 353.066 270.986 358.839 279.314C364.613 287.643 373.527 291.46 378.751 287.839Z" fill="white" stroke="#0DB09E" stroke-width="2.18357"/>
</g>
<defs>
<clipPath id="clip0_30_369">
<rect width="665.476" height="469" fill="white"/>
</clipPath>
</defs>
</svg>
