<svg width="728" height="737" viewBox="0 0 728 737" fill="none" xmlns="http://www.w3.org/2000/svg">
<g clip-path="url(#clip0_31_54)">
<path d="M312.919 114.243L219.847 166.704L80.3368 88.7807L10.1639 128.547" stroke="#0DB09E" stroke-width="4" stroke-linecap="round"/>
<path d="M67.8955 -11.7035L-80.1704 75.0845L209.069 244.695L283.74 199.611L365.179 249.188" stroke="#0DB09E" stroke-width="4" stroke-linecap="round"/>
<path d="M-129.948 207.878L-162.368 227.425C-165.573 229.357 -165.48 234.033 -162.202 235.838L72.1623 364.841L31.9194 391.155C28.4608 393.416 28.5989 398.531 32.1779 400.602L121.82 452.463" stroke="#0DB09E" stroke-width="4" stroke-linecap="round"/>
<path d="M-295.234 112.313L-129.948 207.878C-129.735 208.001 -129.471 208.001 -129.258 207.878L9.027 128.291C9.24033 128.168 9.50387 128.168 9.71972 128.291L154.387 211.833C154.852 212.1 154.852 212.762 154.395 213.031L46.0296 276.038C45.5729 276.304 45.5729 276.969 46.0372 277.235L133.169 327.726C133.633 327.994 133.626 328.662 133.161 328.925L72.1672 363.644C71.6979 363.91 71.6978 364.578 72.1597 364.844L127.607 396.691C127.821 396.814 128.084 396.814 128.3 396.691L202.672 353.833C202.885 353.71 203.149 353.71 203.364 353.833L323.777 423.552" stroke="#FCC45D" stroke-width="4" stroke-linecap="round"/>
<path fill-rule="evenodd" clip-rule="evenodd" d="M99.2736 118.153L80.2942 107.196C79.629 106.811 79.0894 107.123 79.0894 107.891V135.424C79.0894 136.242 79.6642 137.238 80.377 137.647L107.448 153.281C108.161 153.69 108.736 153.359 108.736 152.541V132.969L99.2736 118.151V118.153ZM99.8132 127.287V121.602L105.561 130.607L99.8132 127.287ZM107.019 151.06L80.7986 135.921V109.467L98.0965 119.454V126.792C98.0965 127.611 98.6713 128.607 99.3841 129.016L107.019 133.426V151.06Z" fill="#0DB09E" stroke="#0DB09E" stroke-width="0.228396" stroke-miterlimit="10"/>
<path opacity="0.7" d="M177.927 308.608L139.722 286.547L177.927 264.473L216.147 286.547L177.927 308.608Z" fill="#0DB09E"/>
<path d="M177.927 309.695C177.734 309.695 177.561 309.65 177.38 309.549L139.175 287.488C138.836 287.297 138.628 286.928 138.628 286.547C138.628 286.165 138.836 285.796 139.175 285.606L177.38 263.544C177.719 263.353 178.133 263.353 178.472 263.544L216.692 285.606C217.031 285.796 217.239 286.165 217.239 286.547C217.239 286.928 217.031 287.297 216.692 287.488L178.487 309.549C178.321 309.652 178.133 309.695 177.94 309.695H177.925H177.927ZM141.878 286.547L177.927 307.356L213.976 286.547L177.927 265.738L141.878 286.547Z" fill="#0DB09E"/>
<path opacity="0.7" d="M1.60796 244.168L-18.4357 232.592L1.60796 221.004L21.6516 232.592L1.60796 244.168Z" fill="#0DB09E"/>
<path opacity="0.5" d="M1.60796 232.592L-18.4357 221.004L1.60796 209.429L21.6516 221.004L1.60796 232.592Z" fill="#0DB09E"/>
<path opacity="0.3" d="M1.60796 221.004L-18.4357 209.429L1.60796 197.856L21.6516 209.429L1.60796 221.004Z" fill="#0DB09E"/>
<path d="M1.60789 245.24C1.41464 245.24 1.24147 245.194 1.06076 245.091L-18.9829 233.519C-19.3217 233.328 -19.53 232.959 -19.53 232.577C-19.53 232.196 -19.3217 231.827 -18.9829 231.636L1.06076 220.061C1.3996 219.87 1.80869 219.87 2.14752 220.061L22.1987 231.636C22.5375 231.827 22.7383 232.196 22.7383 232.577C22.7383 232.959 22.5375 233.328 22.1987 233.519L2.14752 245.091C1.9894 245.194 1.79362 245.24 1.60789 245.24ZM-16.2773 232.577L1.60789 242.9L19.4855 232.577L1.60789 222.254L-16.2773 232.577Z" fill="#0DB09E"/>
<path d="M126.35 32.8036C126.35 24.0894 129.344 17.4634 134.678 14.3788C140.003 11.2967 147.237 12.0095 154.776 16.3616C162.316 20.7136 169.549 28.3511 174.875 37.5898C180.209 46.8286 183.203 56.9157 183.203 65.6298V114.195C183.203 114.574 183.072 114.863 182.844 114.996C182.608 115.129 182.297 115.099 181.973 114.911C180.507 114.065 179.054 112.893 177.699 111.462C176.351 110.032 175.119 108.37 174.09 106.573C173.053 104.776 172.235 102.881 171.683 100.994C171.123 99.1062 170.839 97.264 170.847 95.5748V58.4366C170.847 55.9971 170.433 53.3416 169.622 50.6235C168.819 47.9028 167.629 45.1746 166.143 42.587C164.65 40.0018 162.878 37.6099 160.928 35.5518C158.978 33.4938 156.89 31.8072 154.779 30.5899C152.671 29.3701 150.58 28.6448 148.63 28.4515C146.68 28.2582 144.908 28.6046 143.414 29.468C141.921 30.3314 140.739 31.6942 139.936 33.4812C139.127 35.2682 138.711 37.4418 138.711 39.8813V54.1649C138.703 54.3506 138.731 54.5514 138.794 54.7597C138.856 54.9655 138.939 55.1763 139.057 55.3746C139.168 55.5729 139.306 55.7561 139.451 55.9142C139.604 56.0724 139.762 56.2004 139.921 56.2957L147.335 60.5775C147.5 60.6754 147.666 60.7356 147.819 60.7557C147.972 60.7733 148.11 60.7507 148.228 60.6855C148.346 60.6202 148.437 60.5148 148.504 60.3767C148.567 60.2387 148.595 60.068 148.595 59.8798V48.4525C148.595 46.5575 149.252 45.1169 150.407 44.4467C151.569 43.7766 153.14 43.9322 154.779 44.8784C156.418 45.8246 157.989 47.4837 159.151 49.494C160.306 51.5019 160.963 53.6955 160.963 55.5905V112.727C160.956 112.918 160.92 113.084 160.853 113.222C160.79 113.36 160.695 113.463 160.577 113.525C160.451 113.588 160.313 113.611 160.162 113.593C160.004 113.573 159.844 113.513 159.678 113.412C158.22 112.569 156.774 111.404 155.424 109.979C154.081 108.556 152.859 106.899 151.827 105.112C150.796 103.323 149.98 101.435 149.428 99.5555C148.876 97.6781 148.592 95.8434 148.597 94.1618V77.0195C148.597 76.6355 148.459 76.1938 148.223 75.7897C147.987 75.3856 147.671 75.0543 147.337 74.8636L139.923 70.5818C139.765 70.4889 139.604 70.4337 139.454 70.4211C139.308 70.4061 139.17 70.4362 139.06 70.504C138.942 70.5717 138.859 70.6772 138.796 70.8177C138.733 70.9557 138.706 71.1239 138.713 71.3121V77.0246C138.713 80.4354 137.539 83.0281 135.456 84.2353C133.367 85.4426 130.539 85.164 127.585 83.4598C127.258 83.2691 126.947 82.9378 126.714 82.5362C126.485 82.1346 126.355 81.6954 126.355 81.3164V32.8061L126.35 32.8036Z" fill="#0DB09E"/>
<path d="M14.3831 144.986L30.6996 141.026L26.7365 124.709" stroke="#FCC45D" stroke-width="5.53421" stroke-linecap="round"/>
<path d="M123.004 206.889L139.326 202.979L135.418 186.65" stroke="#FCC45D" stroke-width="5.53421" stroke-linecap="round"/>
<path d="M104.564 323.861L121.004 320.455L117.593 304.015" stroke="#FCC45D" stroke-width="5.53421" stroke-linecap="round"/>
<path d="M174.619 383.735L178.161 367.326L161.749 363.787" stroke="#FCC45D" stroke-width="5.53421" stroke-linecap="round"/>
<path d="M235.443 340.355C236.238 340.812 236.522 340.481 236.522 339.733L237.669 302.635C237.669 301.887 237.24 301.141 236.59 300.767L228.616 296.162C227.966 295.788 227.537 296.036 227.537 296.784L228.616 335.17C228.616 335.918 229.045 336.663 229.695 337.037L235.443 340.358V340.355ZM232.572 357.62C235.877 359.53 238.532 357.994 238.532 354.26C238.532 350.525 235.877 345.751 232.572 343.844C229.266 341.934 226.671 343.595 226.671 347.413C226.671 351.23 229.264 355.713 232.572 357.62Z" fill="#FCC45D"/>
<path d="M69.5119 130.246L113.57 155.686V169.861C113.57 172.725 111.564 173.887 109.082 172.454L74.0095 152.202C71.5273 150.769 69.5144 147.285 69.5144 144.421V130.246H69.5119Z" stroke="#0DB09E" stroke-width="3.45857" stroke-linejoin="round"/>
<path d="M84.4856 147.521C84.4856 146.321 85.3289 145.835 86.368 146.434L96.7211 152.413C97.7577 153.013 98.6035 154.473 98.6035 155.673C98.6035 156.873 97.7602 157.36 96.7211 156.76L86.368 150.781C85.3314 150.182 84.4856 148.721 84.4856 147.521Z" stroke="#0DB09E" stroke-width="2.07564"/>
<path d="M58.1975 251.15C58.1975 248.387 58.9103 246.096 60.238 244.567C61.5657 243.036 63.4606 242.338 65.6668 242.557C67.8804 242.775 70.3075 243.904 72.6592 245.797C75.0034 247.689 77.1619 250.267 78.8485 253.196C80.5426 256.127 81.6972 259.28 82.1615 262.261C82.6308 265.241 82.3899 267.911 81.4763 269.934C80.5552 271.959 79.0066 273.245 77.0163 273.631C75.031 274.018 72.6944 273.485 70.3 272.105C67.0899 270.248 64.0128 267 61.7439 263.072C59.475 259.144 58.2025 254.857 58.1949 251.15H58.1975Z" fill="white" stroke="white" stroke-width="0.228396" stroke-miterlimit="10"/>
<path d="M57.6027 250.804C57.6027 254.694 58.9454 259.194 61.3248 263.315C63.7041 267.437 66.9343 270.847 70.3025 272.795C72.8124 274.246 75.2695 274.803 77.3577 274.396C79.4383 273.99 81.0723 272.639 82.0335 270.516C82.9948 268.393 83.2433 265.589 82.7539 262.462C82.2619 259.335 81.0522 256.024 79.2827 252.95C77.5057 249.875 75.2444 247.172 72.7822 245.184C70.3201 243.196 67.76 242.014 65.4434 241.783C63.1268 241.555 61.1416 242.288 59.7436 243.894C58.3456 245.5 57.6077 247.905 57.6077 250.804H57.6027ZM81.8854 271.894L81.6771 272.225L81.9883 272.767L90.8757 288.168C91.4279 289.137 91.7742 290.183 91.8521 291.132L91.8997 291.787L92.4469 292.101L100.137 296.543L100.739 296.89V259.184L100.137 258.838L91.2622 253.715C91.2421 253.7 91.2145 253.678 91.1869 253.652C91.1593 253.625 91.1392 253.595 91.1166 253.562C91.0966 253.529 91.0815 253.494 91.074 253.459C91.0589 253.424 91.0539 253.389 91.0539 253.359V241.492L90.4591 241.146L67.878 228.107L67.2756 227.761V241.648L67.9809 241.906C68.7489 242.187 69.5245 242.551 70.2975 242.993C72.5589 244.296 74.7801 246.251 76.7428 248.67C78.713 251.09 80.3595 253.891 81.529 256.8C82.6986 259.709 83.3412 262.628 83.4039 265.273C83.4666 267.918 82.9396 270.197 81.8829 271.891L81.8854 271.894ZM70.295 243.422L69.4391 243.754C68.8292 243.407 69.0777 242.77 68.4753 242.514V229.834L89.8617 242.182V252.666C89.8617 252.879 89.9044 253.11 89.9722 253.349C90.0425 253.587 90.1453 253.826 90.2759 254.052C90.4064 254.277 90.5595 254.486 90.7326 254.666C90.8983 254.847 91.0865 254.993 91.2647 255.101L99.5447 259.877V294.816L92.9614 291.014C92.7757 289.922 92.3465 288.768 91.7291 287.688V287.683L83.1454 272.813C84.1619 271.003 84.6664 270.453 84.6036 267.74C84.5333 264.854 83.8281 261.669 82.5556 258.491C81.2831 255.316 79.4835 252.259 77.3401 249.617C75.1892 246.976 72.7621 244.84 70.2925 243.42L70.295 243.422Z" fill="#0EAF9C"/>
<path d="M91.074 253.459C91.0815 253.494 91.0966 253.529 91.1167 253.562C91.1392 253.595 91.1593 253.625 91.1869 253.652C91.2145 253.678 91.2421 253.7 91.2622 253.715L100.137 258.838L100.739 259.184V296.89L100.137 296.543L92.4469 292.101L91.8997 291.787L91.852 291.132C91.7742 290.183 91.4279 289.137 90.8757 288.168L81.9883 272.767L81.6771 272.225L81.8854 271.894L81.8829 271.891C82.9396 270.197 83.4666 267.918 83.4039 265.273C83.3412 262.628 82.6986 259.709 81.529 256.8C80.3595 253.891 78.713 251.09 76.7428 248.67C74.7801 246.251 72.5589 244.296 70.2975 242.993C69.5245 242.551 68.7489 242.187 67.9809 241.906L67.2756 241.648V227.761L67.878 228.107L90.4591 241.146L91.0539 241.492V253.359C91.0539 253.389 91.0589 253.424 91.074 253.459ZM91.074 253.459L90.5218 253.404M57.6027 250.804C57.6027 254.694 58.9454 259.194 61.3248 263.315C63.7041 267.437 66.9343 270.847 70.3025 272.795C72.8124 274.246 75.2695 274.803 77.3577 274.396C79.4383 273.99 81.0723 272.639 82.0335 270.516C82.9948 268.393 83.2433 265.589 82.7539 262.462C82.2619 259.335 81.0522 256.024 79.2827 252.95C77.5057 249.875 75.2444 247.172 72.7822 245.184C70.3201 243.196 67.76 242.014 65.4434 241.783C63.1268 241.555 61.1416 242.288 59.7436 243.894C58.3456 245.5 57.6077 247.905 57.6077 250.804H57.6027ZM70.295 243.422L69.4391 243.754C68.8292 243.407 69.0777 242.77 68.4753 242.514V229.834L89.8617 242.182V252.666C89.8617 252.879 89.9044 253.11 89.9722 253.349C90.0425 253.587 90.1453 253.826 90.2759 254.052C90.4064 254.277 90.5595 254.486 90.7326 254.666C90.8983 254.847 91.0865 254.993 91.2647 255.101L99.5447 259.877V294.816L92.9614 291.014C92.7757 289.922 92.3465 288.768 91.7291 287.688V287.683L83.1454 272.813C84.1619 271.003 84.6664 270.453 84.6036 267.74C84.5333 264.854 83.8281 261.669 82.5556 258.491C81.2831 255.316 79.4835 252.259 77.3401 249.617C75.1892 246.976 72.7621 244.84 70.2925 243.42L70.295 243.422Z" stroke="#0EAF9C" stroke-width="1.38293"/>
<path d="M71.7054 239.151L87.4397 248.239V248.718L71.7054 239.63V239.151Z" fill="#0DB09E" stroke="#0DB09E" stroke-width="1.38293"/>
<path d="M88.0897 256.878L97.2531 262.196V262.675L88.0897 257.357V256.878Z" fill="#0EAF9C" stroke="#0EAF9C" stroke-width="1.38293"/>
<path d="M88.0897 260.848L97.2531 266.167V266.646L88.0897 261.328V260.848Z" fill="#0EAF9C" stroke="#0EAF9C" stroke-width="1.38293"/>
<path d="M87.899 264.505L97.2532 269.954V270.433L87.899 264.985V264.505Z" fill="#0DB09E" stroke="#0DB09E" stroke-width="1.38293"/>
<path d="M87.8438 268.493L88.2479 268.747V269.226L87.8438 268.973V268.493Z" fill="#0DB09E" stroke="#0DB09E" stroke-width="1.38293"/>
<path d="M90.7602 270.13L97.2532 273.691V274.171L90.7602 270.609V270.13Z" fill="#0DB09E" stroke="#0DB09E" stroke-width="1.38293"/>
<path d="M132.298 365.783L106.417 350.839C104.514 349.74 102.966 350.633 102.966 352.832C102.966 355.03 104.514 357.711 106.417 358.81L107.142 359.227L115.904 374.414V378.826C115.904 379.265 116.105 379.787 116.428 380.207C116.747 380.616 117.44 381.05 117.721 381.183L121.814 383.841C122.226 384.084 122.806 383.791 122.806 383.311V378.402L131.575 373.34L132.301 373.756C134.203 374.856 135.752 373.962 135.752 371.764C135.744 369.567 134.203 366.884 132.293 365.785L132.298 365.783ZM120.936 375.895C120.735 376.013 120.617 376.269 120.617 376.605V380.646L118.107 379.042V375.154C118.107 374.818 117.989 374.429 117.781 374.073L110.249 361.019L128.473 371.543L120.934 375.895H120.936ZM132.306 371.216L106.417 356.273C105.724 355.874 105.164 354.897 105.164 354.099C105.164 353.301 105.724 352.975 106.417 353.374L132.298 368.317C132.996 368.717 133.558 369.693 133.558 370.491C133.558 371.289 132.998 371.615 132.306 371.216Z" fill="#0DB09E"/>
<path d="M107.594 335.215C105.041 333.742 102.966 334.941 102.966 337.888C102.966 340.835 105.041 344.431 107.594 345.904C110.146 347.378 112.222 346.181 112.222 343.231C112.222 340.282 110.146 336.688 107.594 335.215ZM107.594 343.367C106.251 342.591 105.167 340.704 105.167 339.155C105.167 337.607 106.253 336.977 107.594 337.752C108.936 338.526 110.028 340.415 110.028 341.964C110.028 343.513 108.936 344.143 107.594 343.367Z" fill="#0DB09E"/>
<path fill-rule="evenodd" clip-rule="evenodd" d="M-31.9487 62.6783C-31.9487 60.8486 -31.4518 59.6514 -29.8806 60.5574C-28.3094 61.466 -27.8125 63.2355 -27.8125 65.0651V68.3806L-20.564 72.5671V69.2516C-20.564 67.4219 -20.0671 66.2247 -18.4959 67.1307C-16.9198 68.0393 -16.4278 69.8087 -16.4278 71.6384V74.9539L-9.95492 78.6911C-6.80758 80.5057 -4.26261 84.9456 -4.26261 88.6075V96.1421L-1.41394 97.786C0.157227 98.6946 1.43476 100.007 1.43476 101.839C1.43476 103.672 0.154716 103.511 -1.41394 102.602L-4.26261 100.958V109.402L-1.41394 111.046C0.157227 111.954 1.43476 113.267 1.43476 115.096C1.43476 116.926 0.154716 116.768 -1.41394 115.862L-4.26261 114.218V121.753C-4.26261 125.414 -6.80758 126.91 -9.95492 125.096L-16.4278 121.358V124.674C-16.4278 126.504 -16.9198 127.701 -18.4959 126.795C-20.0671 125.886 -20.564 124.117 -20.564 122.287V118.972L-27.8125 114.785V118.101C-27.8125 119.93 -28.3094 121.128 -29.8806 120.222C-31.4518 119.313 -31.9487 117.544 -31.9487 115.714V112.398L-38.4216 108.661C-41.569 106.847 -44.1139 102.407 -44.1139 98.7448V91.2102L-46.9626 89.5663C-48.5338 88.6577 -49.8063 87.345 -49.8063 85.5154C-49.8063 83.6857 -48.5338 83.8438 -46.9626 84.7499L-44.1139 86.3938V77.9532L-46.9626 76.3092C-48.5338 75.4007 -49.8063 74.088 -49.8063 72.2584C-49.8063 70.4287 -48.5338 70.5868 -46.9626 71.4929L-44.1139 73.1368V65.6022C-44.1139 61.9404 -41.569 60.4445 -38.4216 62.2616L-31.9487 65.9988V62.6833V62.6783ZM-39.9802 66.1745L-8.40134 84.4085V121.178L-39.9802 102.944V66.1745Z" fill="#0DB09E"/>
<path d="M131.124 359.488C133.676 360.961 135.752 359.761 135.752 356.815C135.752 353.868 133.676 350.272 131.124 348.798C128.571 347.325 126.495 348.525 126.495 351.471C126.495 354.418 128.571 358.014 131.124 359.488ZM131.124 351.336C132.466 352.111 133.558 353.999 133.558 355.547C133.558 357.096 132.466 357.723 131.124 356.95C129.788 356.177 128.697 354.287 128.697 352.739C128.697 351.19 129.783 350.56 131.124 351.336Z" fill="#0DB09E"/>
<path d="M119.357 355.412C121.91 356.885 123.986 355.688 123.986 352.739C123.986 349.79 121.91 346.196 119.357 344.722C116.805 343.249 114.729 344.449 114.729 347.395C114.729 350.342 116.805 353.938 119.357 355.412ZM119.357 347.26C120.7 348.033 121.792 349.923 121.792 351.471C121.792 353.02 120.7 353.65 119.357 352.874C118.015 352.101 116.93 350.211 116.93 348.663C116.93 347.114 118.017 346.487 119.357 347.26Z" fill="#0DB09E"/>
<path d="M93.6085 288.001L82.2766 271.654C81.284 270.222 79.3189 269.866 77.8875 270.858C76.4561 271.85 76.1004 273.816 77.093 275.248L88.4249 291.595C89.4175 293.027 91.3826 293.383 92.814 292.391C94.2454 291.399 94.6011 289.433 93.6085 288.001Z" fill="white" stroke="#0DB09E" stroke-width="2.29651" stroke-miterlimit="10"/>
<path d="M80.7507 273.839C85.9739 270.218 85.5278 260.531 79.7543 252.202C73.9808 243.874 65.0661 240.057 59.8429 243.678C54.6196 247.299 55.0657 256.986 60.8393 265.314C66.6128 273.643 75.5274 277.46 80.7507 273.839Z" fill="white" stroke="#0DB09E" stroke-width="2.18357"/>
</g>
<g opacity="0.2" filter="url(#filter0_f_31_54)">
<circle cx="92" cy="101" r="436" fill="#02AF9D"/>
</g>
<defs>
<filter id="filter0_f_31_54" x="-544" y="-535" width="1272" height="1272" filterUnits="userSpaceOnUse" color-interpolation-filters="sRGB">
<feFlood flood-opacity="0" result="BackgroundImageFix"/>
<feBlend mode="normal" in="SourceGraphic" in2="BackgroundImageFix" result="shape"/>
<feGaussianBlur stdDeviation="100" result="effect1_foregroundBlur_31_54"/>
</filter>
<clipPath id="clip0_31_54">
<rect width="665.476" height="469" fill="white" transform="translate(-298 -14)"/>
</clipPath>
</defs>
</svg>
