<svg width="375" height="751" viewBox="0 0 375 751" fill="none" xmlns="http://www.w3.org/2000/svg">
<g clip-path="url(#clip0_33_55)">
<path d="M50.0996 212.5L11.9973 233.977L-45.1154 202.077L-73.8429 218.356" stroke="#0DB09E" stroke-width="2.0786" stroke-linecap="round"/>
<path d="M-50.2096 160.94L-110.825 196.47L7.58444 265.905L38.1532 247.449L71.493 267.744" stroke="#0DB09E" stroke-width="1.87927" stroke-linecap="round"/>
<path d="M-198.868 211.71L-131.203 250.833C-131.115 250.883 -131.008 250.883 -130.92 250.833L-74.3089 218.251C-74.2216 218.201 -74.1137 218.201 -74.0253 218.251L-14.8011 252.452C-14.611 252.561 -14.611 252.832 -14.798 252.942L-59.1607 278.736C-59.3477 278.845 -59.3477 279.117 -59.1576 279.226L-23.4874 299.896C-23.2974 300.006 -23.3004 300.279 -23.4905 300.387L-48.4605 314.601C-48.6526 314.709 -48.6526 314.983 -48.4636 315.092L-25.7643 328.129C-25.677 328.18 -25.5691 328.18 -25.4808 328.129L4.96568 310.584C5.05301 310.534 5.1609 310.534 5.24926 310.584L54.5439 339.126" stroke="#FCC45D" stroke-width="2.2656" stroke-linecap="round"/>
<path opacity="0.7" d="M-5.16456 292.07L-20.8049 283.038L-5.16456 274.002L10.482 283.038L-5.16456 292.07Z" fill="#0DB09E"/>
<path d="M-5.16402 292.515C-5.24314 292.515 -5.31403 292.496 -5.38801 292.455L-21.0284 283.424C-21.1671 283.346 -21.2524 283.195 -21.2524 283.038C-21.2524 282.882 -21.1671 282.731 -21.0284 282.653L-5.38801 273.621C-5.2493 273.543 -5.07976 273.543 -4.94105 273.621L10.7055 282.653C10.8442 282.731 10.9295 282.882 10.9295 283.038C10.9295 283.195 10.8442 283.346 10.7055 283.424L-4.93489 292.455C-5.00271 292.497 -5.07976 292.515 -5.15888 292.515H-5.16505H-5.16402ZM-19.9218 283.038L-5.16402 291.557L9.59375 283.038L-5.16402 274.52L-19.9218 283.038Z" fill="#0DB09E"/>
<path d="M18.3813 305.067C18.7071 305.254 18.8232 305.118 18.8232 304.812L19.2927 289.624C19.2927 289.318 19.117 289.013 18.8509 288.86L15.5866 286.975C15.3205 286.821 15.1448 286.923 15.1448 287.229L15.5866 302.944C15.5866 303.25 15.7623 303.555 16.0284 303.708L18.3813 305.068V305.067ZM17.2059 312.135C18.5591 312.917 19.6462 312.288 19.6462 310.759C19.6462 309.23 18.5591 307.276 17.2059 306.495C15.8527 305.713 14.7903 306.393 14.7903 307.956C14.7903 309.519 15.8517 311.354 17.2059 312.135Z" fill="#FCC45D"/>
</g>
<g opacity="0.1" filter="url(#filter0_f_33_55)">
<circle cx="-42.5" cy="224.5" r="326.5" fill="#02AF9D"/>
</g>
<defs>
<filter id="filter0_f_33_55" x="-569" y="-302" width="1053" height="1053" filterUnits="userSpaceOnUse" color-interpolation-filters="sRGB">
<feFlood flood-opacity="0" result="BackgroundImageFix"/>
<feBlend mode="normal" in="SourceGraphic" in2="BackgroundImageFix" result="shape"/>
<feGaussianBlur stdDeviation="100" result="effect1_foregroundBlur_33_55"/>
</filter>
<clipPath id="clip0_33_55">
<rect width="272.434" height="192" fill="white" transform="translate(-200 160)"/>
</clipPath>
</defs>
</svg>
