<svg xmlns="http://www.w3.org/2000/svg" viewBox="0 0 80 80"><path d="M40.5,23C54,23,65,19.19,65,14.5S54,6,40.5,6,16,9.81,16,14.5,27,23,40.5,23Z" fill="none" stroke="#a0a0c0" stroke-width="4"/><path d="M65,26c0,5-11,9-24.5,9S16,31,16,26" fill="none" stroke="#a0a0c0" stroke-width="4"/><path d="M65,38c0,5-11,9-24.5,9S16,43,16,38" fill="none" stroke="#a0a0c0" stroke-width="4"/><path d="M65,15V49.4C65,54.15,54,58,40.5,58S16,54.15,16,49.4V15" fill="none" stroke="#a0a0c0" stroke-width="4"/><path d="M24,74H56" fill="none" stroke="#a0a0c0" stroke-linecap="round" stroke-width="4"/><path d="M41,60V74" fill="none" stroke="#a0a0c0" stroke-linecap="round" stroke-width="4"/><path d="M12,74h4" fill="none" stroke="#a0a0c0" stroke-linecap="round" stroke-linejoin="round" stroke-width="4" stroke-dasharray="3.97 9.92"/><path d="M64,74h4" fill="none" stroke="#a0a0c0" stroke-linecap="round" stroke-linejoin="round" stroke-width="4" stroke-dasharray="3.97 9.92"/></svg>