<svg xmlns="http://www.w3.org/2000/svg" width="32" height="32" viewBox="0 0 32 32" fill="none">
  <path d="M12 21.333C13.3333 21.333 14.5128 21.333 16 21.333C17.4872 21.333 18.6667 21.333 20 21.333" stroke="#1F49D4" stroke-width="2" stroke-linecap="round"/>
  <ellipse cx="19.9993" cy="14" rx="1.33333" ry="2" fill="#1F49D4"/>
  <ellipse cx="11.9993" cy="14" rx="1.33333" ry="2" fill="#1F49D4"/>
  <path d="M29.3327 16.0003C29.3327 22.2857 29.3327 25.4284 27.3801 27.381C25.4274 29.3337 22.2847 29.3337 15.9993 29.3337C9.71395 29.3337 6.57126 29.3337 4.61864 27.381C2.66602 25.4284 2.66602 22.2857 2.66602 16.0003C2.66602 9.71493 2.66602 6.57223 4.61864 4.61961C6.57126 2.66699 9.71395 2.66699 15.9993 2.66699C22.2847 2.66699 25.4274 2.66699 27.3801 4.61961C28.6784 5.91793 29.1134 7.74239 29.2592 10.667" stroke="#1F49D4" stroke-width="2" stroke-linecap="round"/>
</svg>