<svg xmlns="http://www.w3.org/2000/svg" width="32" height="32" viewBox="0 0 32 32" fill="none">
  <circle cx="6.66602" cy="6.66699" r="4" stroke="#1F49D4" stroke-width="2"/>
  <circle cx="25.334" cy="25.333" r="4" stroke="#1F49D4" stroke-width="2"/>
  <path d="M14.6676 5.66699C14.1153 5.66699 13.6676 6.11471 13.6676 6.66699C13.6676 7.21928 14.1153 7.66699 14.6676 7.66699V6.66699V5.66699ZM17.3343 25.3337L18.0414 26.0408C18.2289 25.8532 18.3343 25.5989 18.3343 25.3337C18.3343 25.0684 18.2289 24.8141 18.0414 24.6266L17.3343 25.3337ZM22.9418 11.5834L23.4787 12.4271L23.4787 12.4271L22.9418 11.5834ZM9.0601 20.4172L9.59698 21.2609L9.59698 21.2609L9.0601 20.4172ZM16.0414 22.6266C15.6509 22.236 15.0177 22.236 14.6272 22.6266C14.2366 23.0171 14.2366 23.6502 14.6272 24.0408L15.3343 23.3337L16.0414 22.6266ZM14.6272 26.6266C14.2366 27.0171 14.2366 27.6502 14.6272 28.0408C15.0177 28.4313 15.6509 28.4313 16.0414 28.0408L15.3343 27.3337L14.6272 26.6266ZM13.8712 18.5409C14.3371 18.2444 14.4745 17.6263 14.178 17.1604C13.8815 16.6945 13.2634 16.5571 12.7974 16.8536L13.3343 17.6973L13.8712 18.5409ZM17.6012 13.7967C17.1352 14.0932 16.9979 14.7113 17.2944 15.1772C17.5909 15.6432 18.209 15.7805 18.6749 15.484L18.138 14.6403L17.6012 13.7967ZM21.5101 6.66699V5.66699H14.6676V6.66699V7.66699H21.5101V6.66699ZM17.3343 25.3337V24.3337H10.4918V25.3337V26.3337H17.3343V25.3337ZM17.3343 25.3337L18.0414 24.6266L16.0414 22.6266L15.3343 23.3337L14.6272 24.0408L16.6272 26.0408L17.3343 25.3337ZM17.3343 25.3337L16.6272 24.6266L14.6272 26.6266L15.3343 27.3337L16.0414 28.0408L18.0414 26.0408L17.3343 25.3337ZM10.4918 25.3337V24.3337C8.82436 24.3337 8.19024 22.1561 9.59698 21.2609L9.0601 20.4172L8.52323 19.5736C5.42843 21.543 6.82344 26.3337 10.4918 26.3337V25.3337ZM21.5101 6.66699V7.66699C23.1775 7.66699 23.8116 9.84457 22.4049 10.7398L22.9418 11.5834L23.4787 12.4271C26.5735 10.4577 25.1784 5.66699 21.5101 5.66699V6.66699ZM13.3343 17.6973L12.7974 16.8536L8.52323 19.5736L9.0601 20.4172L9.59698 21.2609L13.8712 18.5409L13.3343 17.6973ZM22.9418 11.5834L22.4049 10.7398L17.6012 13.7967L18.138 14.6403L18.6749 15.484L23.4787 12.4271L22.9418 11.5834Z" fill="#1F49D4"/>
</svg>