<svg xmlns="http://www.w3.org/2000/svg" width="32" height="32" viewBox="0 0 32 32" fill="none">
  <path d="M6.69991 12.2805C7.41572 10.491 7.77362 9.59626 8.38918 8.8943C8.54604 8.71543 8.71445 8.54702 8.89333 8.39016C9.59528 7.7746 10.49 7.41669 12.2796 6.70088C20.6694 3.34497 24.8643 1.66701 27.2603 3.29522C27.8284 3.68127 28.3184 4.17126 28.7045 4.73936C29.9728 6.6059 29.2349 9.56405 27.2603 14.7465C26.7001 16.2167 26.0404 17.866 25.2988 19.7201C24.583 21.5096 24.2251 22.4044 23.6095 23.1063C23.4527 23.2852 23.2842 23.4536 23.1054 23.6105C22.4034 24.226 21.5086 24.584 19.7191 25.2998C11.3293 28.6557 7.13444 30.3336 4.73839 28.7054C4.17028 28.3194 3.68029 27.8294 3.29424 27.2613C2.03236 25.4043 2.7563 22.4669 4.70812 17.3337" stroke="#1F49D4" stroke-width="2" stroke-linecap="round"/>
  <path d="M16.6667 19.9447C16.4499 19.9811 16.2271 20 16 20C13.7909 20 12 18.2091 12 16C12 13.7909 13.7909 12 16 12C18.2091 12 20 13.7909 20 16C20 16.2271 19.9811 16.4499 19.9447 16.6667" stroke="#1F49D4" stroke-width="2" stroke-linecap="round"/>
</svg>