<svg xmlns="http://www.w3.org/2000/svg" viewBox="0 0 80 80"><rect x="32" y="6" width="16" height="16" rx="2.96" fill="none" stroke="#a0a0c0" stroke-width="4"/><rect x="32" y="58" width="16" height="16" rx="2.96" fill="none" stroke="#a0a0c0" stroke-width="4"/><rect x="12" y="32" width="16" height="16" rx="2.96" fill="none" stroke="#a0a0c0" stroke-width="4"/><rect x="52" y="32" width="16" height="16" rx="2.96" fill="none" stroke="#a0a0c0" stroke-width="4"/><path d="M60,30V19a5,5,0,0,0-5-5H50" fill="none" stroke="#a0a0c0" stroke-width="4"/><path d="M20,30V20c0-5.29,3.41-6,7-6" fill="none" stroke="#a0a0c0" stroke-linecap="round" stroke-linejoin="round" stroke-width="4" stroke-dasharray="3.97 9.92"/><path d="M60,50V60c0,5.29-3.41,6-7,6" fill="none" stroke="#a0a0c0" stroke-linecap="round" stroke-linejoin="round" stroke-width="4" stroke-dasharray="3.97 9.92"/><path d="M20,50V61a5,5,0,0,0,5,5h5" fill="none" stroke="#a0a0c0" stroke-width="4"/><path d="M68,40h6" fill="none" stroke="#a0a0c0" stroke-linecap="round" stroke-width="4"/><path d="M6,40h6" fill="none" stroke="#a0a0c0" stroke-linecap="round" stroke-width="4"/></svg>