<svg xmlns="http://www.w3.org/2000/svg" width="32" height="32" viewBox="0 0 32 32" fill="none">
  <path d="M9.91213 13.2086C7.12449 13.8394 5.73067 14.1547 5.39906 15.2211C5.06745 16.2875 6.01767 17.3986 7.91809 19.6209L8.40976 20.1958C8.9498 20.8274 9.21982 21.1431 9.3413 21.5337C9.46277 21.9244 9.42195 22.3457 9.3403 23.1882L9.26597 23.9553C8.97865 26.9203 8.83499 28.4029 9.70315 29.0619C10.5713 29.721 11.8763 29.1201 14.4864 27.9183L15.1617 27.6074C15.9034 27.2659 16.2742 27.0952 16.6673 27.0952C17.0604 27.0952 17.4313 27.2659 18.173 27.6074L18.8482 27.9183C21.4583 29.1201 22.7633 29.721 23.6315 29.0619C24.4996 28.4029 24.356 26.9203 24.0687 23.9553M25.4165 19.6209C27.317 17.3986 28.2672 16.2875 27.9356 15.2211C27.604 14.1547 26.2101 13.8394 23.4225 13.2086L22.7013 13.0454C21.9092 12.8662 21.5131 12.7766 21.195 12.5352C20.877 12.2937 20.6731 11.9279 20.2651 11.1961L19.8937 10.5298C18.4582 7.9546 17.7404 6.66699 16.6673 6.66699C15.5942 6.66699 14.8764 7.9546 13.4409 10.5298" stroke="#1F49D4" stroke-width="2" stroke-linecap="round"/>
  <path d="M6.6525 2.66699C6.6525 2.66699 7.03641 4.61061 7.87813 5.44666C8.71985 6.28271 10.666 6.65348 10.666 6.65348C10.666 6.65348 8.7224 7.03739 7.88635 7.87911C7.0503 8.72082 6.67953 10.667 6.67953 10.667C6.67953 10.667 6.29562 8.72337 5.4539 7.88732C4.61218 7.05128 2.66602 6.6805 2.66602 6.6805C2.66602 6.6805 4.60963 6.29659 5.44568 5.45488C6.28173 4.61316 6.6525 2.66699 6.6525 2.66699Z" stroke="#1F49D4" stroke-width="1.33333" stroke-linejoin="round"/>
  <path d="M24 6.66634H26.6667M25.3333 7.99967L25.3333 5.33301" stroke="#1F49D4" stroke-width="2" stroke-linecap="round"/>
</svg>