<svg xmlns="http://www.w3.org/2000/svg" width="43" height="43" viewBox="0 0 43 43" fill="none">
  <path d="M39.8602 28.0152C34.3552 31.9315 27.1345 32.3665 21.2602 29.3M3.13967 14.9848C8.65807 11.0591 15.9005 10.6314 21.7824 13.7224M28.0787 25.6425C33.7078 22.0948 36.9672 15.5996 36.3219 8.84884M14.8346 17.4122C9.25852 20.9717 6.03571 27.435 6.67762 34.1512M28.3775 17.8672C28.1181 11.2206 24.1227 5.15285 17.9551 2.33583M14.6275 25.255C14.9307 31.8537 18.9149 37.8645 25.0446 40.6642M35.2886 7.71143C42.9038 15.3267 42.9038 27.6734 35.2886 35.2886C27.6733 42.9038 15.3266 42.9038 7.71143 35.2886C0.0961914 27.6733 0.0961914 15.3266 7.71143 7.71143C15.3267 0.0961914 27.6734 0.0961914 35.2886 7.71143ZM27.0155 15.9846C30.0615 19.0307 30.0615 23.9694 27.0155 27.0155C23.9694 30.0615 19.0307 30.0615 15.9846 27.0155C12.9385 23.9694 12.9385 19.0307 15.9846 15.9846C19.0307 12.9385 23.9694 12.9385 27.0155 15.9846Z" stroke="white" stroke-width="2.37966" stroke-linecap="round" stroke-linejoin="round"/>
</svg>