<svg xmlns="http://www.w3.org/2000/svg" width="38" height="39" viewBox="0 0 38 39" fill="none">
  <path d="M24.7119 12.3078C24.0066 11.5829 23.6539 11.2204 23.5218 10.8025C23.4056 10.4349 23.4056 10.0389 23.5218 9.67125C23.6539 9.25331 24.0066 8.89087 24.7119 8.166L29.7669 2.97059C28.4254 2.34709 26.9363 2 25.3684 2C19.4668 2 14.6827 6.91703 14.6827 12.9825C14.6827 13.8813 14.7877 14.7549 14.9859 15.591C15.1981 16.4864 15.3042 16.934 15.2854 17.2169C15.2657 17.513 15.2227 17.6705 15.0899 17.934C14.963 18.1857 14.7198 18.4356 14.2336 18.9354L3.10654 30.3715C1.63115 31.8878 1.63115 34.3464 3.10654 35.8627C4.58192 37.3791 6.974 37.3791 8.44938 35.8627L19.5764 24.4266C20.0627 23.9268 20.3058 23.6769 20.5507 23.5465C20.8071 23.41 20.9604 23.3658 21.2485 23.3456C21.5236 23.3262 21.9592 23.4352 22.8304 23.6534C23.6439 23.857 24.4939 23.965 25.3684 23.965C31.2699 23.965 36.0541 19.048 36.0541 12.9825C36.0541 11.371 35.7163 9.84054 35.1097 8.46184L30.0547 13.6573C29.3494 14.3821 28.9968 14.7446 28.5901 14.8804C28.2324 14.9998 27.8471 14.9998 27.4895 14.8804C27.0828 14.7446 26.7302 14.3821 26.0249 13.6572L24.7119 12.3078Z" stroke="white" stroke-width="3" stroke-linecap="round" stroke-linejoin="round"/>
</svg>