<svg xmlns="http://www.w3.org/2000/svg" width="39" height="42" viewBox="0 0 39 42" fill="none">
  <path d="M19.5 2.6923V21.1645M19.5 21.1645L36.0278 11.9823M19.5 21.1645L2.97222 11.9823M19.5 21.1645V39.6367M36.0278 30.3466L21.0109 22.0039C20.4594 21.6975 20.1837 21.5444 19.8917 21.4843C19.6333 21.4312 19.3667 21.4312 19.1083 21.4843C18.8163 21.5444 18.5406 21.6975 17.9891 22.0039L2.97222 30.3466M37 29.0562V13.2729C37 12.6066 37 12.2735 36.9018 11.9764C36.815 11.7136 36.673 11.4723 36.4854 11.2687C36.2734 11.0386 35.9822 10.8768 35.3998 10.5533L21.0109 2.55946C20.4594 2.2531 20.1837 2.09992 19.8917 2.03986C19.6333 1.98671 19.3667 1.98671 19.1083 2.03986C18.8163 2.09992 18.5406 2.2531 17.9891 2.55946L3.60022 10.5533C3.01781 10.8769 2.72661 11.0386 2.51456 11.2687C2.32697 11.4723 2.18501 11.7136 2.09816 11.9764C2 12.2735 2 12.6066 2 13.2729V29.0562C2 29.7224 2 30.0555 2.09816 30.3526C2.18501 30.6155 2.32697 30.8568 2.51456 31.0603C2.72661 31.2904 3.01781 31.4522 3.60022 31.7758L17.9891 39.7696C18.5406 40.0759 18.8163 40.2291 19.1083 40.2892C19.3667 40.3423 19.6333 40.3423 19.8917 40.2892C20.1837 40.2291 20.4594 40.0759 21.0109 39.7696L35.3998 31.7758C35.9822 31.4522 36.2734 31.2904 36.4854 31.0603C36.673 30.8568 36.815 30.6155 36.9018 30.3526C37 30.0555 37 29.7224 37 29.0562Z" stroke="#E0E0E0" stroke-width="3" stroke-linecap="round" stroke-linejoin="round"/>
</svg>