<svg xmlns="http://www.w3.org/2000/svg" width="91" height="54" viewBox="0 0 91 54" fill="none">
<path fill-rule="evenodd" clip-rule="evenodd" d="M81.6403 42.8277C71.7593 50.1258 57.4034 54.0001 45.0597 54.0001C27.7605 54.0001 12.1731 47.603 0.40005 36.9712C-0.530985 36.1303 0.30995 34.989 1.42118 35.6498C14.1553 43.038 29.8628 47.5129 46.1108 47.5129C57.073 47.5129 69.1164 45.2304 80.1987 40.5452C81.8506 39.7944 83.2621 41.6264 81.6403 42.8277Z" fill="#2B2F55"/>
<path fill-rule="evenodd" clip-rule="evenodd" d="M85.7548 38.1425C84.4934 36.5207 77.4055 37.3616 74.1919 37.7521C73.2309 37.8722 73.0807 37.0313 73.9517 36.4006C79.598 32.4362 88.8783 33.5774 89.9595 34.8989C91.0407 36.2504 89.6591 45.5307 84.3733 49.9756C83.5624 50.6664 82.7815 50.306 83.1419 49.405C84.3432 46.4317 87.0162 39.7343 85.7548 38.1425Z" fill="#2B2F55"/>
<path d="M25.4477 19.6118C25.4477 20.723 25.5678 21.624 25.7781 22.2848C26.0183 22.9455 26.3187 23.6663 26.7391 24.4472C26.8893 24.6874 26.9494 24.9277 26.9494 25.1379C26.9494 25.4383 26.7692 25.7386 26.3787 26.0389L24.4866 27.3003C24.2163 27.4805 23.946 27.5706 23.7058 27.5706C23.4054 27.5706 23.1051 27.4205 22.8048 27.1502C22.3843 26.6997 22.0239 26.2191 21.7236 25.7386C21.4232 25.228 21.1229 24.6574 20.7925 23.9666C18.4499 26.7297 15.5067 28.1112 11.9627 28.1112C9.43992 28.1112 7.42769 27.3904 5.95605 25.9488C4.48442 24.5072 3.73358 22.5851 3.73358 20.1824C3.73358 17.6296 4.63458 15.5573 6.46662 13.9956C8.29865 12.4338 10.7314 11.653 13.8248 11.653C14.8459 11.653 15.8971 11.743 17.0083 11.8932C18.1196 12.0434 19.2608 12.2837 20.4622 12.554V10.3615C20.4622 8.07898 19.9816 6.48721 19.0506 5.55617C18.0895 4.62514 16.4677 4.17464 14.1552 4.17464C13.104 4.17464 12.0228 4.29477 10.9116 4.56507C9.80032 4.83537 8.71912 5.16574 7.66795 5.58621C7.18742 5.79644 6.82702 5.91657 6.61679 5.97664C6.40655 6.03671 6.25638 6.06674 6.13625 6.06674C5.71578 6.06674 5.50555 5.76641 5.50555 5.13571V3.66407C5.50555 3.18354 5.56562 2.82314 5.71578 2.6129C5.86595 2.40267 6.13625 2.19244 6.55672 1.9822C7.60789 1.4416 8.86929 0.991101 10.3409 0.630701C11.8126 0.240267 13.3743 0.0600667 15.0261 0.0600667C18.6001 0.0600667 21.213 0.870968 22.8949 2.49277C24.5467 4.11457 25.3876 6.57731 25.3876 9.88098V19.6118H25.4477ZM13.2542 24.1769C14.2453 24.1769 15.2664 23.9967 16.3476 23.6363C17.4288 23.2759 18.3899 22.6151 19.2008 21.7141C19.6813 21.1435 20.0417 20.5128 20.2219 19.792C20.4021 19.0712 20.5222 18.2002 20.5222 17.1791V15.9177C19.6513 15.7075 18.7202 15.5273 17.7592 15.4071C16.7981 15.287 15.8671 15.2269 14.936 15.2269C12.9238 15.2269 11.4522 15.6174 10.4611 16.4283C9.46996 17.2392 8.98942 18.3804 8.98942 19.8821C8.98942 21.2937 9.34982 22.3448 10.1007 23.0656C10.8215 23.8165 11.8726 24.1769 13.2542 24.1769ZM37.371 27.4205C36.8304 27.4205 36.47 27.3304 36.2297 27.1201C35.9894 26.9399 35.7792 26.5195 35.599 25.9488L28.5411 2.73304C28.3609 2.13237 28.2708 1.74194 28.2708 1.5317C28.2708 1.05117 28.5111 0.780868 28.9916 0.780868H31.9349C32.5056 0.780868 32.896 0.870968 33.1062 1.0812C33.3465 1.2614 33.5267 1.68187 33.7069 2.2525L38.7525 22.1346L43.4377 2.2525C43.5879 1.65184 43.7681 1.2614 44.0083 1.0812C44.2486 0.901001 44.6691 0.780868 45.2097 0.780868H47.6123C48.183 0.780868 48.5734 0.870968 48.8137 1.0812C49.0539 1.2614 49.2642 1.68187 49.3843 2.2525L54.1296 22.3749L59.3254 2.2525C59.5056 1.65184 59.7158 1.2614 59.926 1.0812C60.1663 0.901001 60.5567 0.780868 61.0973 0.780868H63.8904C64.371 0.780868 64.6413 1.02113 64.6413 1.5317C64.6413 1.68187 64.6112 1.83204 64.5812 2.01224C64.5512 2.19244 64.4911 2.4327 64.371 2.76307L57.1329 25.9789C56.9527 26.5795 56.7425 26.97 56.5022 27.1502C56.262 27.3304 55.8715 27.4505 55.361 27.4505H52.7781C52.2074 27.4505 51.817 27.3604 51.5767 27.1502C51.3365 26.9399 51.1262 26.5495 51.0061 25.9488L46.3509 6.57731L41.7258 25.9188C41.5756 26.5195 41.3954 26.9099 41.1552 27.1201C40.9149 27.3304 40.4944 27.4205 39.9538 27.4205H37.371ZM75.9638 28.2314C74.4021 28.2314 72.8404 28.0512 71.3387 27.6908C69.837 27.3304 68.6657 26.9399 67.8849 26.4894C67.4043 26.2191 67.074 25.9188 66.9538 25.6485C66.8337 25.3782 66.7736 25.0779 66.7736 24.8076V23.2759C66.7736 22.6452 67.0139 22.3448 67.4644 22.3448C67.6446 22.3448 67.8248 22.3749 68.005 22.4349C68.1852 22.495 68.4555 22.6151 68.7558 22.7353C69.777 23.1858 70.8882 23.5462 72.0595 23.7864C73.2608 24.0267 74.4321 24.1468 75.6335 24.1468C77.5256 24.1468 78.9972 23.8165 80.0183 23.1557C81.0395 22.495 81.5801 21.5339 81.5801 20.3026C81.5801 19.4616 81.3098 18.7709 80.7692 18.2002C80.2286 17.6296 79.2075 17.119 77.7358 16.6385L73.381 15.287C71.1885 14.5962 69.5667 13.5751 68.5756 12.2236C67.5845 10.9021 67.074 9.43048 67.074 7.86874C67.074 6.60734 67.3443 5.49611 67.8849 4.53504C68.4255 3.57397 69.1463 2.73304 70.0473 2.0723C70.9483 1.38154 71.9694 0.870968 73.1707 0.510567C74.3721 0.150167 75.6335 0 76.9549 0C77.6157 0 78.3064 0.0300334 78.9672 0.120133C79.658 0.210234 80.2887 0.330367 80.9193 0.450501C81.52 0.600667 82.0906 0.750834 82.6312 0.931035C83.1719 1.11123 83.5923 1.29144 83.8927 1.47164C84.3131 1.7119 84.6135 1.95217 84.7937 2.22247C84.9739 2.46274 85.064 2.7931 85.064 3.21357V4.62514C85.064 5.25584 84.8237 5.58621 84.3732 5.58621C84.1329 5.58621 83.7425 5.46607 83.2319 5.22581C81.52 4.44494 79.5979 4.05451 77.4655 4.05451C75.7536 4.05451 74.4021 4.32481 73.4711 4.89544C72.54 5.46607 72.0595 6.33704 72.0595 7.56841C72.0595 8.40934 72.3598 9.13015 72.9605 9.70078C73.5612 10.2714 74.6724 10.842 76.2642 11.3526L80.5289 12.7041C82.6913 13.3949 84.2531 14.356 85.1841 15.5873C86.1151 16.8187 86.5656 18.2303 86.5656 19.792C86.5656 21.0834 86.2953 22.2547 85.7848 23.2759C85.2442 24.297 84.5234 25.198 83.5923 25.9188C82.6613 26.6696 81.55 27.2102 80.2586 27.6007C78.9071 28.0211 77.4955 28.2314 75.9638 28.2314Z" fill="#252F3E"/>
</svg>