<?xml version="1.0" encoding="utf-8"?>
<!-- Generator: Adobe Illustrator 26.0.1, SVG Export Plug-In . SVG Version: 6.00 Build 0)  -->
<svg version="1.1" id="Layer_1" xmlns="http://www.w3.org/2000/svg" xmlns:xlink="http://www.w3.org/1999/xlink" x="0px" y="0px"
	 viewBox="0 0 1173 212" style="enable-background:new 0 0 1173 212;" xml:space="preserve">
<g>
	<path d="M118,132.6H45.2v-30.8H118c12.6,0,19.5,6.2,19.5,15.4S130.6,132.6,118,132.6 M45.2,38.2h68.5c12.8,0,20,5,20,14.4
		c0,9.5-7.1,14.4-20,14.4H45.2L45.2,38.2z M154.4,82.4c10.5-5,23.3-16.8,23.3-35.5c0-30-21.4-46.3-59.2-46.4H0.5l0,169.9h122
		c38.1,0,59.9-18,59.9-48C182.5,102.3,169.6,88.6,154.4,82.4"/>
	<path d="M530.8,135c-13.8,0-20.2-4.7-20.2-16.1l0-36.9l49.5,0l0-36.5h-49.5V12.4h-44.5l0,33.1h-7.6l-49.5,0V12.4h-44.5l0,33.1
		h-26.2l0,36.5h26.2l0,49.4c0,28.6,21.4,41.4,51.1,41.4c21.4,0,37.3-3.8,49-8.3l-8.3-34.6c-8.3,3.1-17.8,5-27.1,5
		c-13.8,0-20.2-4.7-20.2-16.1V82H440h26.2l0,49.4c0,28.6,21.4,41.4,51.1,41.4c21.4,0,37.3-3.8,49-8.3l-8.3-34.5
		C549.6,133.1,540.1,135,530.8,135"/>
	<path d="M764.8,66.4V45.6h-45.2l0,124.9l45.2,0l0-47.3c0-26.5,18.3-35.8,43.3-35.7c6.9,0,10,0.5,15.7,1.4l0-43
		c-4-0.5-8.1-0.9-13.8-0.9C789.5,44.9,775.7,51.3,764.8,66.4"/>
	<path d="M964.4,90.3c0,27.2-14.3,42.6-44,42.6c-29.7,0-44-15.4-44-42.6l0-89.7h-46.6l0,94.2c0,48.8,32.1,78.3,90.6,78.3
		c58.5,0,90.6-29.6,90.6-78.3l0-94.2l-46.6,0L964.4,90.3z"/>
	<path d="M1094.5,137.7c-18.6,0-33.3-11.9-33.3-28.9v-1.4c0-17,14.8-28.9,33.3-28.9c18.3,0,33.5,10.4,33.5,29.5
		C1128,127.2,1112.8,137.7,1094.5,137.7 M1105.4,42.8c-19.7,0-35.2,7.1-43.1,15.9v-13h-45.2l0,165.8h45.2l0-53.9
		c7.9,8.8,23.3,15.9,43,15.9c42.6,0,67.1-29.3,67.1-65.3C1172.5,72.2,1148,42.8,1105.4,42.8"/>
	<path d="M294.5,123.1l41.4,12.1c-9.9,24.1-39.3,38.1-71.5,38.1c-46.1,0-77.9-26.7-77.9-65.5c0-37.4,32.2-65.1,77.4-65.1
		c47.8,0,73.8,30,73.8,65.3v10.9H231.1c4.3,12.8,16.3,19.9,33.1,19.9C277.7,138.7,289.5,133.3,294.5,123.1z M231.8,94.2h60.1
		c-1.4-8.5-11.6-18-28.9-18C249,76.3,237,82.2,231.8,94.2z"/>
	<path d="M670.1,123.1l41.4,12.1c-9.9,24.1-39.3,38.1-71.5,38.1c-46.1,0-77.9-26.7-77.9-65.5c0-37.4,32.2-65.1,77.4-65.1
		c47.8,0,73.8,30,73.8,65.3v10.9H606.7c4.3,12.8,16.3,19.9,33.1,19.9C653.3,138.7,665.1,133.3,670.1,123.1z M607.4,94.2h60.1
		c-1.4-8.5-11.6-18-28.9-18C624.7,76.3,612.6,82.2,607.4,94.2z"/>
</g>
</svg>
