<svg width="244" height="38" viewBox="0 0 244 38" fill="none" xmlns="http://www.w3.org/2000/svg">
<path id="Vector" fill-rule="evenodd" clip-rule="evenodd" d="M33.7101 5.80133C30.7391 5.80133 28.2672 6.97503 26.6539 8.85752C26.5332 9.00015 26.462 9.17791 26.4511 9.36419C26.4504 9.453 26.4695 9.54085 26.5069 9.62145C26.5443 9.70206 26.5991 9.77342 26.6675 9.83044L27.9792 11.0351C28.0512 11.1198 28.1419 11.1867 28.2441 11.2307C28.3464 11.2746 28.4575 11.2944 28.5687 11.2885C28.7635 11.2684 28.9442 11.1783 29.0772 11.0351C30.1766 9.90321 31.4869 9.12703 33.6032 9.12703C37.2192 9.12703 39.8439 11.6631 39.8439 15.2246C39.8439 18.7875 37.2232 21.3505 33.5234 21.3505C32.3321 21.3505 30.7513 20.6956 29.399 19.6688L29.2381 19.5084C26.9339 17.5477 25.8899 14.4511 24.9798 11.4717L24.7919 10.8694L24.6499 10.4085C24.3416 9.41001 24.0441 8.44383 23.6938 7.60028C23.6533 7.51943 23.3733 6.93325 23.2909 6.75807C22.3221 4.83474 20.8622 3.19949 19.058 2.01679C17.2539 0.834097 15.169 0.145648 13.013 0.0206836C10.8571 -0.104281 8.70618 0.338645 6.77655 1.30492C4.84691 2.27119 3.20662 3.72674 2.02064 5.52518C0.83465 7.32362 0.144783 9.40155 0.0204146 11.55C-0.103954 13.6984 0.341562 15.8416 1.31216 17.764C2.28275 19.6864 3.7442 21.3203 5.54953 22.5012C7.35487 23.6822 9.44042 24.3687 11.5965 24.4916H33.6019C34.4492 24.4618 35.291 24.3425 36.113 24.1358C40.4119 23.202 43.464 19.7968 43.464 15.2084C43.4707 9.8547 39.2665 5.80133 33.7101 5.80133ZM20.6607 8.73086L20.7216 8.871C21.0447 9.64987 21.3301 10.5999 21.637 11.6146L21.7114 11.8612C22.1928 13.5456 22.7743 15.1976 23.4545 16.812C24.1553 18.4544 25.1382 19.9625 26.3591 21.2683H12.3524C10.7188 21.2699 9.11524 20.8303 7.71229 19.9964C6.30933 19.1624 5.15937 17.9652 4.38467 16.5319C3.60998 15.0987 3.23949 13.4831 3.31261 11.8569C3.38572 10.2306 3.89971 8.65447 4.79991 7.29603C5.70012 5.9376 6.95291 4.84764 8.42509 4.14203C9.89726 3.43641 11.5338 3.14152 13.1607 3.2887C14.7877 3.43588 16.3442 4.01962 17.6648 4.97788C18.9854 5.93614 20.0207 7.23309 20.6607 8.73086ZM51.6195 28.6473C53.0069 30.2213 54.846 31.0096 57.0637 31.0096C59.3274 31.0055 61.0542 30.1283 62.2456 28.3819L62.2996 30.1283C62.2893 30.1937 62.2946 30.2606 62.3151 30.3236C62.3356 30.3866 62.3707 30.4439 62.4176 30.4908C62.4646 30.5376 62.5219 30.5728 62.5851 30.5934C62.6482 30.614 62.7154 30.6195 62.7811 30.6093H65.9413C66.2902 30.6093 66.4633 30.4625 66.4633 30.1283V7.9695C66.4739 7.90399 66.4688 7.83691 66.4484 7.77374C66.428 7.71057 66.3929 7.65311 66.3459 7.60606C66.299 7.55901 66.2415 7.5237 66.1782 7.50302C66.115 7.48234 66.0477 7.47688 65.9819 7.48709H62.4457C62.3799 7.47688 62.3126 7.48234 62.2493 7.50302C62.1861 7.5237 62.1286 7.55901 62.0816 7.60606C62.0347 7.65311 61.9996 7.71057 61.9792 7.77374C61.9588 7.83691 61.9537 7.90399 61.9643 7.9695V16.6099C60.8379 15.1141 59.2057 14.381 57.0623 14.381C54.8717 14.381 53.0109 15.1963 51.6181 16.7702C50.2253 18.3441 49.5153 20.3048 49.5153 22.694C49.5153 25.0818 50.232 27.0694 51.6181 28.6446L51.6195 28.6473ZM56.4038 26.653C55.8957 26.4515 55.4342 26.1489 55.0475 25.7636H55.0407C54.2604 24.9915 53.8575 23.9499 53.8777 22.6953C53.8764 21.4421 54.2645 20.4274 55.0407 19.6526C55.4225 19.2568 55.8833 18.9451 56.3933 18.7376C56.9034 18.5301 57.4515 18.4314 58.0022 18.4479C59.1813 18.4344 60.1455 18.8212 60.8946 19.6081C61.6425 20.3964 62.017 21.4232 62.017 22.6913C62.0062 23.9714 61.6316 24.9982 60.8946 25.7731C60.1563 26.5465 59.1908 26.9346 58.0008 26.9346C57.4548 26.9499 56.9114 26.8541 56.4038 26.653ZM71.8061 28.6473C73.4396 30.2213 75.5289 31.0096 78.113 31.0096C80.5377 31.0096 82.4268 30.3493 83.7588 29.0071C84.04 28.7551 84.0941 28.5274 83.921 28.2862L82.7107 26.6328C82.6871 26.5844 82.6532 26.5418 82.6112 26.508C82.5692 26.4742 82.5203 26.45 82.4679 26.4372C82.4155 26.4243 82.3609 26.4231 82.308 26.4336C82.2551 26.4441 82.2052 26.4661 82.1617 26.498C81.0393 27.1448 79.7628 27.4817 78.466 27.4723C75.8264 27.4723 74.2483 26.432 73.752 24.3649H83.4301C84.0995 24.3649 84.5417 24.1897 84.7959 23.776C85.0502 23.3623 85.1854 22.7627 85.1854 21.9353C85.1854 19.8534 84.5011 18.0652 83.1083 16.5964C81.756 15.1033 79.894 14.3689 77.564 14.3689C75.1272 14.3689 73.1719 15.1707 71.6452 16.7311C70.1184 18.2929 69.3693 20.2536 69.3693 22.6279C69.3693 25.044 70.1739 27.0721 71.8061 28.6473ZM81.207 21.2278H73.6938C73.8967 20.201 74.3375 19.4141 75.0353 18.8656C75.7734 18.3111 76.6808 18.027 77.6046 18.0611C78.4872 18.0304 79.3517 18.3158 80.0414 18.8656C80.6837 19.4127 81.0718 20.1997 81.207 21.2278ZM95.9765 31.0096C93.3936 31.0096 91.3044 30.2213 89.6695 28.646C88.0332 27.0707 87.2327 25.044 87.2327 22.6279C87.2327 20.2536 87.9832 18.2929 89.5099 16.7311C91.0366 15.1707 92.9893 14.3689 95.4274 14.3689C97.7587 14.3689 99.6195 15.1033 100.972 16.5964C102.365 18.0652 103.047 19.8534 103.047 21.9353C103.047 22.7627 102.914 23.3623 102.658 23.776C102.401 24.1897 101.963 24.3649 101.292 24.3649H91.6154C92.1103 26.432 93.6911 27.4723 96.3294 27.4723C97.6282 27.4819 98.906 27.1455 100.031 26.498C100.096 26.4502 100.175 26.4252 100.257 26.4269C100.338 26.4286 100.416 26.4569 100.479 26.5075C100.522 26.5414 100.556 26.5842 100.58 26.6328L101.788 28.2862C101.963 28.5288 101.91 28.7551 101.628 29.0071C100.289 30.3506 98.4011 31.0096 95.9765 31.0096ZM91.5627 21.2278H99.0745C98.9406 20.201 98.5525 19.4127 97.9102 18.8656C97.2198 18.3162 96.3551 18.0308 95.4721 18.0611C94.5478 18.0267 93.6399 18.3108 92.9014 18.8656C92.1874 19.4141 91.7642 20.201 91.5627 21.2278ZM106.198 37.7688C106.262 37.789 106.328 37.7944 106.394 37.7836H109.91C109.976 37.7949 110.043 37.7906 110.106 37.7711C110.169 37.7516 110.227 37.7175 110.275 37.6715C110.322 37.6256 110.358 37.569 110.38 37.5065C110.401 37.444 110.408 37.3774 110.398 37.312V28.7444C111.564 30.2657 113.225 31.0136 115.341 31.0136C117.548 31.0136 119.369 30.2226 120.763 28.65C122.156 27.0761 122.865 25.0737 122.865 22.6993C122.865 20.3237 122.167 18.3603 120.762 16.7756C119.356 15.1909 117.536 14.3864 115.34 14.3864C113.01 14.3864 111.269 15.2502 110.144 16.9979L110.09 15.2502C110.1 15.1848 110.095 15.1179 110.075 15.055C110.054 14.992 110.019 14.9348 109.972 14.888C109.925 14.8412 109.868 14.8062 109.805 14.7857C109.741 14.7653 109.674 14.7601 109.609 14.7705H106.394C106.329 14.7604 106.262 14.7658 106.199 14.7864C106.136 14.8069 106.078 14.842 106.032 14.8887C105.985 14.9354 105.949 14.9925 105.929 15.0553C105.908 15.1181 105.903 15.1849 105.913 15.2502V37.3039C105.897 37.4026 105.917 37.5038 105.969 37.5891C106.021 37.6744 106.103 37.7381 106.198 37.7688ZM117.334 25.7731C116.585 26.5465 115.607 26.9346 114.415 26.9346C113.198 26.9346 112.208 26.5573 111.457 25.769C110.707 24.9807 110.344 23.9606 110.344 22.6872C110.344 21.4125 110.696 20.3802 111.457 19.6041C112.22 18.8292 113.206 18.4438 114.415 18.4438C114.96 18.425 115.502 18.5228 116.006 18.7306C116.51 18.9384 116.963 19.2514 117.335 19.6485C118.11 20.422 118.5 21.4165 118.5 22.6913C118.5 23.9647 118.085 24.9996 117.334 25.7731ZM130.912 31.0096C128.438 31.0096 126.455 30.1377 124.969 28.3967C124.766 28.1582 124.793 27.851 125.02 27.4629L126.146 25.8755C126.359 25.5413 126.628 25.5157 126.962 25.7421C128.329 26.7689 129.561 27.2904 130.644 27.2904C131.839 27.2904 132.439 26.8497 132.439 25.9698C132.442 25.7998 132.41 25.631 132.343 25.4745C132.276 25.318 132.177 25.1773 132.052 25.0616C131.681 24.7438 131.255 24.4954 130.795 24.3285L128.777 23.5146C126.461 22.6064 125.298 21.1659 125.298 19.1756C125.298 17.7094 125.845 16.5479 126.93 15.6801C128.016 14.8123 129.327 14.3864 130.865 14.3864C133.064 14.3864 134.83 15.2003 136.197 16.816C136.281 16.9118 136.324 17.0368 136.317 17.1639C136.309 17.2911 136.251 17.4101 136.156 17.4952L134.746 19.2025C134.543 19.4437 134.304 19.4437 134.008 19.2025C132.951 18.3226 131.987 17.8819 131.116 17.8819C130.711 17.8546 130.31 17.9785 129.991 18.2296C129.865 18.3442 129.765 18.4845 129.698 18.6409C129.631 18.7974 129.598 18.9664 129.602 19.1365C129.602 19.8035 130.112 20.3237 131.13 20.6861L133.367 21.5513C135.76 22.5134 136.951 24.0428 136.939 26.1302C136.914 27.6663 136.335 28.8522 135.185 29.7186C133.993 30.5945 132.586 31.0096 130.912 31.0096ZM141.371 28.646C143.004 30.2213 145.093 31.0096 147.678 31.0096C150.102 31.0096 151.991 30.3493 153.311 29.0071C153.592 28.7551 153.647 28.5274 153.473 28.2862L152.263 26.6328C152.24 26.5842 152.206 26.5413 152.165 26.5075C152.123 26.4737 152.074 26.4497 152.021 26.4374C151.969 26.4248 151.914 26.4236 151.861 26.4341C151.808 26.4446 151.758 26.4664 151.714 26.498C150.592 27.1448 149.315 27.4817 148.018 27.4723C145.398 27.4723 143.809 26.432 143.317 24.3649H152.995C153.664 24.3649 154.106 24.1897 154.361 23.776C154.615 23.3623 154.749 22.7627 154.749 21.9353C154.749 19.8534 154.066 18.0652 152.673 16.5964C151.319 15.1033 149.459 14.3689 147.13 14.3689C144.707 14.3689 142.736 15.1707 141.21 16.7311C139.683 18.2929 138.934 20.2536 138.934 22.6279C138.934 25.044 139.738 27.0707 141.371 28.646ZM150.772 21.2278H143.258C143.46 20.201 143.89 19.4141 144.599 18.8656C145.338 18.3108 146.246 18.0267 147.171 18.0611C148.053 18.0308 148.917 18.3161 149.606 18.8656C150.248 19.4127 150.636 20.1997 150.772 21.2278ZM163.626 31.0096C162.216 31.0096 161.056 30.6498 160.144 29.9019C159.233 29.154 158.82 27.9924 158.82 26.3781V18.2121H156.804C156.705 18.2282 156.603 18.2083 156.518 18.1562C156.432 18.104 156.368 18.0229 156.338 17.9277C156.317 17.8647 156.312 17.7979 156.321 17.7324V15.2367C156.312 15.1712 156.317 15.1044 156.338 15.0413C156.358 14.978 156.393 14.9205 156.44 14.8736C156.487 14.8267 156.544 14.7918 156.608 14.7718C156.671 14.7511 156.738 14.7456 156.804 14.7557H158.82V11.0594C158.802 10.9591 158.821 10.8556 158.875 10.7686C158.928 10.6816 159.012 10.6172 159.11 10.5878C159.175 10.5686 159.243 10.5654 159.31 10.5783H162.845C162.943 10.563 163.044 10.583 163.13 10.6348C163.215 10.6866 163.279 10.7668 163.311 10.8613C163.332 10.9248 163.337 10.9922 163.326 11.058V14.7813H165.83C165.896 14.7709 165.963 14.7762 166.026 14.7966C166.09 14.8171 166.147 14.8521 166.194 14.8988C166.241 14.9456 166.277 15.0028 166.297 15.0657C166.318 15.1286 166.323 15.1955 166.313 15.261V17.7566C166.323 17.8221 166.317 17.8889 166.297 17.952C166.277 18.0153 166.242 18.0728 166.195 18.1198C166.148 18.1667 166.09 18.2016 166.027 18.2215C165.963 18.2418 165.896 18.2469 165.83 18.2363H163.326V25.9105C163.326 26.8484 163.797 27.3173 164.738 27.3173C165.074 27.32 165.411 27.3066 165.747 27.2769C166.135 27.223 166.336 27.3834 166.336 27.731V30.0879C166.324 30.701 165.422 31.0082 163.626 31.0082V31.0096ZM186.873 28.301C185.061 30.0157 182.649 30.9584 180.151 30.9287C174.379 30.9287 170.108 26.5587 170.108 20.864C170.108 15.1707 174.379 10.7495 180.151 10.7495C182.645 10.7166 185.055 11.6494 186.873 13.3515C186.949 13.4044 187.005 13.4809 187.033 13.5688C187.06 13.6568 187.058 13.7515 187.026 13.838C187.004 13.8953 186.97 13.9473 186.926 13.9903L185.802 15.1963C185.626 15.3971 185.44 15.3971 185.211 15.1963C183.826 13.961 182.03 13.2808 180.171 13.2869C175.952 13.2869 172.778 16.5048 172.778 20.8546C172.778 25.2044 175.952 28.3927 180.171 28.3927C182.03 28.3997 183.825 27.7204 185.211 26.4859C185.44 26.2568 185.626 26.2851 185.802 26.459L186.926 27.6852C187.153 27.9129 187.074 28.0989 186.873 28.301ZM192.791 30.5689H191.024C190.944 30.5755 190.864 30.5551 190.796 30.5109C190.729 30.4667 190.678 30.4012 190.653 30.325C190.635 30.2738 190.63 30.2199 190.635 30.1674V10.9112C190.63 10.8591 190.637 10.8065 190.654 10.7572C190.672 10.708 190.701 10.6633 190.738 10.6264C190.775 10.5895 190.82 10.5613 190.87 10.5439C190.919 10.5265 190.972 10.5203 191.024 10.5258H192.791C192.843 10.5203 192.896 10.5264 192.945 10.5436C192.995 10.5608 193.04 10.5888 193.077 10.6255C193.115 10.6621 193.144 10.7069 193.162 10.7565C193.18 10.806 193.186 10.8589 193.18 10.9112V30.1808C193.185 30.233 193.179 30.2856 193.161 30.335C193.144 30.3843 193.116 30.4293 193.079 30.4665C193.041 30.5035 192.996 30.5318 192.946 30.5493C192.896 30.5668 192.843 30.573 192.791 30.5676V30.5689ZM210.693 23.6965C210.693 27.793 207.655 30.9031 203.61 30.9031C199.567 30.9031 196.486 27.7903 196.486 23.6938C196.486 19.5973 199.565 16.4859 203.61 16.4859C207.655 16.4859 210.693 19.6014 210.693 23.6965ZM203.61 18.8252C200.942 18.8252 198.973 20.8142 198.973 23.6979H198.977C198.977 26.5789 200.966 28.5395 203.61 28.5395C206.254 28.5395 208.247 26.5789 208.247 23.6965C208.247 20.8128 206.247 18.8252 203.61 18.8252ZM223.318 28.4061C222.527 29.8076 221.064 30.9018 218.847 30.9031C215.902 30.9018 213.841 28.9128 213.855 25.2623V17.2257C213.846 17.1471 213.865 17.068 213.907 17.001C213.949 16.9341 214.013 16.8832 214.087 16.8565C214.137 16.8388 214.189 16.8324 214.242 16.8376H216.01C216.264 16.8376 216.371 16.971 216.371 17.2257V24.9106C216.371 27.2055 217.557 28.553 219.66 28.553C221.763 28.553 223.315 27.2055 223.315 24.9106V17.2257C223.315 16.9845 223.422 16.8376 223.676 16.8376H225.445C225.524 16.8292 225.604 16.8476 225.671 16.8899C225.738 16.9322 225.789 16.9959 225.816 17.0707C225.833 17.1206 225.84 17.1731 225.833 17.2257V30.1808C225.838 30.233 225.832 30.2858 225.815 30.3353C225.798 30.3849 225.77 30.4301 225.733 30.4679C225.696 30.505 225.65 30.5333 225.6 30.5508C225.551 30.5682 225.498 30.5744 225.445 30.5689H223.787C223.505 30.5689 223.425 30.4476 223.398 30.1404L223.318 28.4075V28.4061ZM240.966 28.1258C239.962 29.8332 238.235 30.9018 235.88 30.9018C231.918 30.9018 229.157 27.793 229.157 23.6979C229.157 19.6014 231.914 16.4899 235.879 16.4899C238.155 16.4899 239.87 17.5046 240.859 19.1607V10.9112C240.854 10.859 240.861 10.8065 240.878 10.7571C240.896 10.7078 240.924 10.6628 240.961 10.6255C240.998 10.5886 241.044 10.5605 241.094 10.5433C241.143 10.5261 241.197 10.5201 241.249 10.5258H243.015C243.067 10.5198 243.12 10.5256 243.17 10.5429C243.219 10.5602 243.265 10.5884 243.302 10.6255C243.339 10.6623 243.368 10.7071 243.386 10.7566C243.403 10.8061 243.409 10.859 243.403 10.9112V30.166C243.408 30.2182 243.402 30.2709 243.385 30.3205C243.368 30.3701 243.34 30.4153 243.303 30.453C243.266 30.4902 243.22 30.5186 243.17 30.5361C243.121 30.5536 243.068 30.5597 243.015 30.5541H241.381C241.127 30.5541 241.02 30.4207 241.02 30.166L240.966 28.1258ZM236.332 18.8252C233.602 18.8252 231.633 20.8142 231.633 23.6979H231.637C231.637 26.6193 233.606 28.5678 236.332 28.58C239.024 28.58 240.914 26.657 240.914 23.7356C240.914 20.8142 239.062 18.8252 236.332 18.8252ZM29.6898 37.3456C28.8303 37.9178 27.7779 38.1263 26.7641 37.9253C25.7504 37.7243 24.8583 37.1302 24.2841 36.2737C23.7099 35.4172 23.5007 34.3685 23.7024 33.3583C23.9041 32.3481 24.5003 31.4591 25.3598 30.8869C26.2193 30.3148 27.2717 30.1063 28.2854 30.3073C29.2992 30.5083 30.1913 31.1024 30.7655 31.9589C31.3397 32.8154 31.5489 33.8641 31.3472 34.8743C31.1455 35.8845 30.5493 36.7735 29.6898 37.3456Z" fill="#188BF5"/>
</svg>
