<svg xmlns="http://www.w3.org/2000/svg" width="123" height="50" viewBox="0 0 123 50" fill="none">
  <path d="M0.858734 46.046H24.4823V49.4277H0.858734V46.046Z" fill="#2B2F55"/>
  <path d="M0.858734 39.5593H24.4823V42.9529H0.858734V39.5593Z" fill="#2B2F55"/>
  <path d="M7.5982 33.0848H17.7312V36.4785H7.5982V33.0848Z" fill="#2B2F55"/>
  <path d="M7.5982 26.6101H17.7312V30.0038H7.5982V26.6101Z" fill="#2B2F55"/>
  <path d="M7.5982 20.1356H17.7312V23.5294H7.5982V20.1356Z" fill="#2B2F55"/>
  <path d="M7.5982 13.649H17.7312V17.0428H7.5982V13.649Z" fill="#2B2F55"/>
  <path d="M24.4823 7.17441H0.858734V10.5681H24.4823V7.17441Z" fill="#2B2F55"/>
  <path d="M24.4824 0.700012H0.858765V4.09375H24.4824V0.700012Z" fill="#2B2F55"/>
  <path d="M27.852 42.9529H64.184C64.7977 41.9059 65.255 40.7626 65.5319 39.5592H27.852V42.9529Z" fill="#2B2F55"/>
  <path d="M61.3561 26.61H34.6035V30.0038H64.1843C63.414 28.7039 62.4632 27.5608 61.3561 26.61Z" fill="#2B2F55"/>
  <path d="M34.6035 20.1356V23.5293H61.3561C62.4874 22.5786 63.438 21.4352 64.1843 20.1356H34.6035Z" fill="#2B2F55"/>
  <path d="M64.1841 7.17435H27.852V10.5681H65.5319C65.2191 9.36463 64.7618 8.22143 64.1841 7.17435Z" fill="#2B2F55"/>
  <path d="M53.016 0.699951H27.8519V4.09369H61.6928C59.4304 1.99964 56.3617 0.699951 53.016 0.699951Z" fill="#2B2F55"/>
  <path d="M44.7245 13.649H34.6035V17.0427H44.7245V13.649Z" fill="#2B2F55"/>
  <path d="M54.8575 17.0427H65.4478C65.7486 15.9597 65.9051 14.8164 65.9051 13.649H54.8575V17.0427Z" fill="#2B2F55"/>
  <path d="M34.6035 33.0847H44.7245V36.4785H34.6035V33.0847Z" fill="#2B2F55"/>
  <path d="M54.8575 33.0847V36.4785H65.9051C65.9051 35.3111 65.7486 34.1679 65.4478 33.0847H54.8575Z" fill="#2B2F55"/>
  <path d="M27.852 49.4036L53.0161 49.4397C56.3858 49.4397 59.4305 48.14 61.7049 46.0459H27.852V49.4036Z" fill="#2B2F55"/>
  <path d="M68.3601 46.0459H85.2324V49.4276H68.3601V46.0459Z" fill="#2B2F55"/>
  <path d="M68.3601 39.5592H85.2324V42.9528H68.3601V39.5592Z" fill="#2B2F55"/>
  <path d="M75.0992 33.0847H85.2322V36.4785H75.0992V33.0847Z" fill="#2B2F55"/>
  <path d="M75.0992 26.61H85.2322V30.0038H75.0992V26.61Z" fill="#2B2F55"/>
  <path d="M89.9259 7.17435H68.3601V10.5681H91.0932L89.9259 7.17435Z" fill="#2B2F55"/>
  <path d="M87.6873 0.699951H68.3601V4.09369H88.8547L87.6873 0.699951Z" fill="#2B2F55"/>
  <path d="M105.474 46.0459H122.359V49.4276H105.474V46.0459Z" fill="#2B2F55"/>
  <path d="M105.474 39.5592H122.359V42.9528H105.474V39.5592Z" fill="#2B2F55"/>
  <path d="M105.474 33.0847H115.607V36.4785H105.474V33.0847Z" fill="#2B2F55"/>
  <path d="M105.474 26.61H115.607V30.0038H105.474V26.61Z" fill="#2B2F55"/>
  <path d="M105.474 23.5293H115.607V20.1356H105.474H96.304L95.3532 22.8795L94.4025 20.1356H85.2322H75.0992V23.5293H85.2322V20.4123L86.3033 23.5293H104.403L105.474 20.4123V23.5293Z" fill="#2B2F55"/>
  <path d="M115.607 13.649H98.5424L97.3751 17.0427H115.607V13.649Z" fill="#2B2F55"/>
  <path d="M103.031 0.69986L101.864 4.0936H122.359V0.69986H103.031Z" fill="#2B2F55"/>
  <path d="M95.3533 49.4036L96.5206 46.0459H94.1859L95.3533 49.4036Z" fill="#2B2F55"/>
  <path d="M93.1151 42.9528H97.5919L98.7953 39.5592H91.9236L93.1151 42.9528Z" fill="#2B2F55"/>
  <path d="M90.84 36.4785H99.8659L101.057 33.0847H89.6486L90.84 36.4785Z" fill="#2B2F55"/>
  <path d="M88.5778 30.0038H102.141L103.296 26.61H87.4105L88.5778 30.0038Z" fill="#2B2F55"/>
  <path d="M75.0992 17.0427H93.3313L92.1641 13.649H75.0992V17.0427Z" fill="#2B2F55"/>
  <path d="M99.6255 10.5681H122.359V7.17435H100.781L99.6255 10.5681Z" fill="#2B2F55"/>
</svg>