<svg xmlns="http://www.w3.org/2000/svg" width="129" height="51" viewBox="0 0 129 51" fill="none">
  <g clip-path="url(#clip0_30_530)">
    <path d="M9.68015 1.49008H0.444092V10.7261H9.68015V1.49008Z" fill="#2B2F55"/>
    <path d="M9.44991 49.6097V16.3468H0.706879V49.6097H9.44991ZM67.5615 49.9384V41.787C66.2796 41.787 65.1949 41.7213 64.4061 41.5898C63.4858 41.4583 62.7955 41.1296 62.3354 40.6695C61.8752 40.2093 61.5794 39.5519 61.415 38.6974C61.2836 37.8757 61.2178 36.791 61.2178 35.4762V23.8408H67.5615V16.3468H61.2178V3.3637H52.4419V35.542C52.4419 38.2701 52.672 40.5709 53.1322 42.4115C53.5923 44.2193 54.3812 45.6984 55.4658 46.8159C56.5505 47.9334 57.9967 48.7223 59.7387 49.2153C61.5136 49.7083 63.7487 49.9384 66.4111 49.9384H67.5615ZM117.785 49.6097V0.799957H109.009V49.6097H117.785ZM43.9947 19.6008C41.5625 16.9713 38.1441 15.6565 33.8055 15.6565C31.7019 15.6565 29.7955 16.0838 28.0535 16.9384C26.3443 17.793 24.8652 18.9763 23.7148 20.4882L23.2218 21.1127V20.5539V16.3468H14.5774V49.6097H23.2876V31.8936V33.1097C23.2876 32.9125 23.2876 32.7153 23.2876 32.5181C23.3862 29.3956 24.1421 27.0948 25.5884 25.6157C27.1332 24.038 29.0067 23.2492 31.1431 23.2492C33.674 23.2492 35.6133 24.038 36.8951 25.55C38.1441 27.0619 38.8015 29.1984 38.8015 31.9265V31.9922V49.5768H47.6431V30.7103C47.676 25.9772 46.427 22.2302 43.9947 19.6008ZM104.473 32.9125C104.473 30.5131 104.046 28.278 103.224 26.1745C102.369 24.1037 101.186 22.2631 99.7069 20.6854C98.1949 19.1077 96.3872 17.8916 94.2836 17.0041C92.18 16.1167 89.8463 15.6894 87.3154 15.6894C84.916 15.6894 82.6481 16.1496 80.5445 17.037C78.4409 17.9573 76.6003 19.1735 75.0555 20.7183C73.5107 22.2631 72.2617 24.1037 71.3742 26.2073C70.4539 28.3109 70.0266 30.5788 70.0266 32.9782C70.0266 35.3776 70.4539 37.6456 71.3085 39.7492C72.1631 41.8527 73.3792 43.6934 74.8911 45.2382C76.4031 46.783 78.2766 48.032 80.4459 48.9195C82.6152 49.8398 85.0146 50.3 87.5784 50.3C95.0067 50.3 99.6083 46.9145 102.369 43.7591L96.0585 38.9603C94.7437 40.538 91.5883 42.6745 87.6441 42.6745C85.179 42.6745 83.1411 42.1157 81.5963 40.9653C80.0515 39.8478 78.9997 38.2701 78.4409 36.3308L78.3423 36.035H104.473V32.9125ZM78.4081 29.8557C78.4081 27.4235 81.2019 23.1834 87.2168 23.1506C93.2318 23.1506 96.0585 27.3906 96.0585 29.8229L78.4081 29.8557Z" fill="#2B2F55"/>
    <path d="M127.777 45.2711C127.613 44.8767 127.382 44.548 127.087 44.2522C126.791 43.9564 126.462 43.7263 126.068 43.562C125.673 43.3976 125.246 43.299 124.819 43.299C124.359 43.299 123.964 43.3976 123.57 43.562C123.175 43.7263 122.847 43.9564 122.551 44.2522C122.255 44.548 122.025 44.8767 121.861 45.2711C121.696 45.6655 121.598 46.0928 121.598 46.5201C121.598 46.9803 121.696 47.3747 121.861 47.7691C122.025 48.1636 122.255 48.4922 122.551 48.7881C122.847 49.0839 123.175 49.314 123.57 49.4783C123.964 49.6426 124.391 49.7412 124.819 49.7412C125.279 49.7412 125.673 49.6426 126.068 49.4783C126.462 49.314 126.791 49.0839 127.087 48.7881C127.382 48.4922 127.613 48.1636 127.777 47.7691C127.941 47.3747 128.04 46.9474 128.04 46.5201C128.04 46.0928 127.941 45.6655 127.777 45.2711ZM127.251 47.5719C127.119 47.9006 126.922 48.1964 126.692 48.4265C126.462 48.6566 126.166 48.8538 125.838 48.9853C125.509 49.1167 125.18 49.1825 124.786 49.1825C124.424 49.1825 124.063 49.1167 123.734 48.9853C123.405 48.8538 123.11 48.6566 122.879 48.4265C122.649 48.1964 122.452 47.9006 122.321 47.5719C122.189 47.2432 122.123 46.9146 122.123 46.5201C122.123 46.1586 122.189 45.797 122.321 45.4683C122.452 45.1396 122.649 44.8438 122.879 44.6138C123.11 44.3837 123.405 44.1865 123.734 44.055C124.063 43.9235 124.391 43.8578 124.786 43.8578C125.147 43.8578 125.509 43.9235 125.838 44.055C126.166 44.1865 126.462 44.3837 126.692 44.6138C126.922 44.8438 127.119 45.1396 127.251 45.4683C127.382 45.797 127.448 46.1257 127.448 46.5201C127.481 46.9146 127.382 47.2432 127.251 47.5719ZM125.41 46.7831C125.673 46.7502 125.87 46.6516 126.035 46.4873C126.199 46.3229 126.298 46.0928 126.298 45.7642C126.298 45.4026 126.199 45.1396 125.969 44.9424C125.772 44.7452 125.41 44.6466 124.983 44.6466H123.537V48.3608H124.227V46.8488H124.72L125.64 48.3608H126.364L125.41 46.7831ZM125.049 46.2572C124.95 46.2572 124.852 46.2572 124.72 46.2572H124.227V45.2054H124.72C124.819 45.2054 124.917 45.2054 125.049 45.2054C125.147 45.2054 125.246 45.2383 125.345 45.2711C125.443 45.304 125.509 45.3697 125.542 45.4355C125.575 45.5012 125.608 45.5998 125.608 45.7313C125.608 45.8628 125.575 45.9614 125.542 46.0271C125.476 46.0928 125.41 46.1586 125.345 46.1914C125.246 46.2243 125.147 46.2572 125.049 46.2572Z" fill="#2B2F55"/>
  </g>
  <defs>
    <clipPath id="clip0_30_530">
      <rect width="127.596" height="49.5" fill="white" transform="translate(0.444153 0.799988)"/>
    </clipPath>
  </defs>
</svg>