<svg xmlns="http://www.w3.org/2000/svg" width="74" height="54" viewBox="0 0 74 54" fill="none">
  <g clip-path="url(#clip0_30_534)">
    <path d="M73.0219 52.2915C73.0219 53.0784 72.4441 53.6065 71.7601 53.6065V53.6017C71.0567 53.6065 70.4895 53.0784 70.4895 52.2917C70.4895 51.5052 71.0567 50.9786 71.7601 50.9786C72.4443 50.9784 73.0219 51.505 73.0219 52.2915ZM73.5338 52.2915C73.5338 51.2116 72.6949 50.5848 71.7601 50.5848C70.8188 50.5848 69.9799 51.2116 69.9799 52.2915C69.9799 53.3707 70.819 54.0001 71.7601 54.0001C72.6951 54.0001 73.5338 53.3707 73.5338 52.2915ZM71.4659 52.4359H71.6558L72.0958 53.2086H72.5791L72.0917 52.4033C72.3435 52.3854 72.5507 52.2654 72.5507 51.9263C72.5507 51.505 72.2603 51.3696 71.7682 51.3696H71.0565V53.2086H71.4657V52.4359M71.4659 52.1246V51.6818H71.7505C71.9053 51.6818 72.1163 51.6943 72.1163 51.8831C72.1163 52.0887 72.0072 52.1246 71.8246 52.1246H71.4659Z" fill="#2B2F55"/>
    <path d="M61.5894 42.8841L63.8008 48.934H59.3095L61.5894 42.8841ZM59.221 40.5285L54.1247 53.4408H57.7234L58.5295 51.1592H64.5606L65.3235 53.4408H69.2302L64.0959 40.5268L59.221 40.5285ZM48.9894 53.4456H52.6405V40.5245L48.9888 40.5237L48.9894 53.4456ZM23.6432 40.5237L20.5971 50.7646L17.6791 40.5245L13.7396 40.5237L17.9071 53.4456H23.167L27.3681 40.5237H23.6432ZM38.4012 43.3373H39.9704C42.2469 43.3373 43.7193 44.3594 43.7193 47.0118C43.7193 49.6647 42.2469 50.687 39.9704 50.687H38.4012V43.3373ZM34.7808 40.5237V53.4456H40.6999C43.8535 53.4456 44.8833 52.9214 45.9967 51.7454C46.7832 50.9197 47.2919 49.1076 47.2919 47.1267C47.2919 45.3099 46.8614 43.6904 46.1108 42.6813C44.7585 40.8765 42.8103 40.5237 39.903 40.5237H34.7808ZM0.195663 40.5057V53.4456H3.8776V43.6203L6.7305 43.6211C7.67514 43.6211 8.34851 43.8565 8.8034 44.3425C9.38037 44.957 9.61595 45.949 9.61595 47.7636V53.4456H13.1838V46.2962C13.1838 41.1937 9.93146 40.5057 6.74928 40.5057H0.195663ZM28.9048 40.5237L28.9062 53.4456H32.5556V40.5237H28.9048Z" fill="#2B2F55"/>
    <path d="M10.008 14.7947C10.008 14.7947 14.7039 7.86634 24.0799 7.14957V4.63596C13.6948 5.47 4.70161 14.2657 4.70161 14.2657C4.70161 14.2657 9.79518 28.9904 24.0799 30.3386V27.6668C13.5971 26.348 10.008 14.7947 10.008 14.7947ZM24.0799 22.3533V24.8001C16.1572 23.3876 13.9581 15.152 13.9581 15.152C13.9581 15.152 17.7621 10.9379 24.0799 10.2545V12.9395C24.0751 12.9395 24.0718 12.938 24.0678 12.938C20.7519 12.5401 18.1615 15.6377 18.1615 15.6377C18.1615 15.6377 19.6134 20.8525 24.0799 22.3533ZM24.0799 -0.000213623V4.63596C24.3848 4.61259 24.6896 4.59276 24.9962 4.58233C36.803 4.1844 44.4959 14.2657 44.4959 14.2657C44.4959 14.2657 35.6603 25.0096 26.4552 25.0096C25.6115 25.0096 24.8217 24.9314 24.0799 24.7999V27.6668C24.7143 27.7473 25.372 27.7947 26.0583 27.7947C34.6243 27.7947 40.819 23.42 46.8174 18.2423C47.8119 19.0388 51.8834 20.9765 52.7204 21.8247C47.0171 26.5997 33.7252 30.4487 26.1896 30.4487C25.4632 30.4487 24.7656 30.4047 24.0799 30.3386V34.3671H56.6387V-0.000213623H24.0799ZM24.0799 10.2545V7.14957C24.3817 7.12849 24.6857 7.11242 24.9962 7.10262C33.4864 6.83594 39.0566 14.3987 39.0566 14.3987C39.0566 14.3987 33.0403 22.7543 26.5896 22.7543C25.6612 22.7543 24.829 22.6051 24.0799 22.3533V12.9395C27.3852 13.3389 28.0502 14.7989 30.0374 18.1115L34.457 14.3849C34.457 14.3849 31.2307 10.1537 25.7922 10.1537C25.2011 10.1535 24.6354 10.1951 24.0799 10.2545Z" fill="#2B2F55"/>
  </g>
  <defs>
    <clipPath id="clip0_30_534">
      <rect width="73.3383" height="54" fill="white" transform="translate(0.195648)"/>
    </clipPath>
  </defs>
</svg>